<?xml version="1.0" encoding="utf-8"?>
<!-- Generator: Adobe Illustrator 16.0.0, SVG Export Plug-In . SVG Version: 6.00 Build 0)  -->
<!DOCTYPE svg PUBLIC "-//W3C//DTD SVG 1.1//EN" "http://www.w3.org/Graphics/SVG/1.1/DTD/svg11.dtd">
<svg version="1.1" id="Layer_1" xmlns="http://www.w3.org/2000/svg" xmlns:xlink="http://www.w3.org/1999/xlink" x="0px" y="0px"
	 width="2800px" height="2800px" viewBox="0 0 2800 2800" enable-background="new 0 0 2800 2800" xml:space="preserve">
<g>
	<rect fill="#282F39" width="2800" height="2800"/>
	<g>
		<g>
			<path fill="#282F39" d="M2288.6,676.1C2183.3,404.6,2015.3,175.8,1807.7,0H0v2800h1456.2
				C2236.4,2420.6,2607.9,1499.5,2288.6,676.1z M775.8,1435.5c-82.9,32.2-176.2-9-208.4-91.9c-32.1-82.9,9-176.2,91.9-208.4
				c82.9-32.2,176.2,9,208.4,91.9C899.8,1310,858.7,1403.4,775.8,1435.5z"/>
			<path fill="#2C4557" d="M2461.6,618.6C2369.5,381.1,2234.2,173.1,2068.3,0h-260.6c207.7,175.8,375.6,404.6,480.9,676.1
				c319.3,823.4-52.2,1744.5-832.4,2123.9h375.1C2492.3,2310.5,2773.4,1422.6,2461.6,618.6z"/>
			<g>
				<path fill="#486272" d="M1572.9,2779.3c-4-6.3-12.8-7.8-19.6-3.5c-6.8,4.4-9.1,13-5.1,19.3c1.4,2.2,3.5,3.9,5.8,4.8h11.1
					c0.9-0.4,1.8-0.8,2.7-1.4C1574.7,2794.2,1577,2785.6,1572.9,2779.3z"/>
				<path fill="#486272" d="M1631,2790.3c-4.3-6.1-13.1-7.2-19.8-2.6c-4.3,3-6.5,7.7-6.5,12.3h28.3
					C1633.7,2796.6,1633,2793.2,1631,2790.3z"/>
				<path fill="#486272" d="M1617.8,2737.5c-6.6,4.7-8.5,13.4-4.2,19.5c4.3,6.1,13.1,7.3,19.8,2.6c6.6-4.7,8.5-13.4,4.2-19.5
					C1633.2,2734,1624.4,2732.9,1617.8,2737.5z"/>
				<path fill="#486272" d="M1731.9,2775.4c-6.6-8.5-19.5-9.5-28.8-2.3c-8.8,6.8-11.3,18.4-6.2,26.8h33.8
					C1736.7,2792.7,1737.4,2782.6,1731.9,2775.4z"/>
				<path fill="#486272" d="M1676.2,2746.8c-6.4,5-7.9,13.7-3.3,19.7c4.6,5.9,13.5,6.7,19.9,1.7c6.4-4.9,7.9-13.8,3.3-19.6
					C1691.4,2742.6,1682.6,2741.8,1676.2,2746.8z"/>
				<path fill="#486272" d="M1680.5,2696.3c-6.4,5-7.9,13.8-3.3,19.6c4.6,5.9,13.5,6.7,19.9,1.7c6.4-5,7.9-13.8,3.3-19.7
					C1695.8,2692.2,1686.9,2691.4,1680.5,2696.3z"/>
				<path fill="#486272" d="M1796.2,2729.2c-6.9-8.2-19.9-8.6-28.9-1c-9,7.6-10.7,20.5-3.8,28.6c6.9,8.2,19.9,8.6,28.9,1
					C1801.4,2750.2,1803.1,2737.4,1796.2,2729.2z"/>
				<path fill="#486272" d="M1803.2,2763.6c-6.2,5.2-7.3,14.1-2.4,19.8c4.8,5.7,13.7,6.1,19.9,0.8c6.2-5.2,7.3-14.1,2.5-19.8
					C1818.3,2758.7,1809.4,2758.3,1803.2,2763.6z"/>
				<path fill="#486272" d="M1759.1,2703.9c-4.8-5.7-13.7-6.1-19.9-0.8c-6.2,5.2-7.3,14.1-2.5,19.8c4.8,5.7,13.7,6.1,19.9,0.8
					C1762.8,2718.4,1763.9,2709.5,1759.1,2703.9z"/>
				<path fill="#486272" d="M1758.8,2673.1c6.2-5.2,7.3-14.1,2.5-19.8c-4.8-5.7-13.7-6.1-19.9-0.8c-6.2,5.2-7.3,14.1-2.5,19.8
					C1743.7,2677.9,1752.6,2678.3,1758.8,2673.1z"/>
				<path fill="#486272" d="M1858.4,2680.2c-7.3-7.9-20.2-7.7-28.9,0.3c-8.7,8-9.8,20.9-2.5,28.8c7.3,7.9,20.2,7.8,28.9-0.3
					C1864.5,2700.9,1865.6,2688,1858.4,2680.2z"/>
				<path fill="#486272" d="M1866.9,2714.2c-5.9,5.5-6.6,14.4-1.6,19.9c5.1,5.5,14,5.5,19.9,0c5.9-5.5,6.6-14.4,1.6-19.9
					C1881.7,2708.7,1872.8,2708.7,1866.9,2714.2z"/>
				<path fill="#486272" d="M1800.3,2656.5c-5.9,5.5-6.6,14.4-1.6,19.9c5.1,5.5,14,5.4,19.9,0c5.9-5.5,6.7-14.4,1.6-19.9
					C1815.1,2651,1806.2,2651,1800.3,2656.5z"/>
				<path fill="#486272" d="M1818.5,2625.7c5.9-5.5,6.6-14.4,1.6-19.9c-5.1-5.5-14-5.5-19.9,0c-5.9,5.5-6.7,14.4-1.6,19.9
					C1803.6,2631.2,1812.6,2631.2,1818.5,2625.7z"/>
				<path fill="#486272" d="M1889.4,2630c-8.3,8.4-8.9,21.3-1.3,28.9c7.6,7.5,20.5,6.9,28.9-1.6c8.3-8.4,8.9-21.3,1.3-28.9
					C1910.7,2620.9,1897.8,2621.6,1889.4,2630z"/>
				<path fill="#486272" d="M1928.3,2662.1c-5.7,5.7-6,14.7-0.7,19.9c5.3,5.2,14.2,4.8,19.9-0.9c5.7-5.8,6-14.7,0.7-19.9
					C1942.9,2655.9,1934,2656.3,1928.3,2662.1z"/>
				<path fill="#486272" d="M1859.2,2607.4c-5.7,5.8-6,14.7-0.7,19.9c5.3,5.2,14.2,4.8,19.9-0.9c5.7-5.7,6-14.7,0.7-19.9
					C1873.8,2601.2,1864.9,2601.6,1859.2,2607.4z"/>
				<path fill="#486272" d="M1856.9,2556.8c-5.7,5.8-6,14.7-0.7,19.9c5.3,5.2,14.2,4.8,19.9-0.9c5.7-5.8,6-14.7,0.7-19.9
					C1871.5,2550.7,1862.6,2551.1,1856.9,2556.8z"/>
				<path fill="#486272" d="M1947.1,2577c-7.9,8.8-7.9,21.7,0,28.9c8,7.2,20.8,5.9,28.8-2.8c7.9-8.8,7.9-21.7,0-28.9
					C1967.9,2566.9,1955.1,2568.2,1947.1,2577z"/>
				<path fill="#486272" d="M1987.4,2607.3c-5.4,6-5.4,14.9,0.2,19.9c5.5,5,14.4,4.2,19.9-1.8c5.4-6,5.3-14.9-0.2-19.9
					C2001.7,2600.5,1992.8,2601.3,1987.4,2607.3z"/>
				<path fill="#486272" d="M1916,2555.7c-5.4,6-5.4,14.9,0.2,19.9c5.5,5,14.4,4.2,19.9-1.8c5.4-6,5.4-14.9-0.2-19.9
					C1930.3,2548.9,1921.4,2549.7,1916,2555.7z"/>
				<path fill="#486272" d="M1911.4,2505.3c-5.4,6-5.4,14.9,0.2,19.9c5.5,5,14.4,4.2,19.9-1.8c5.4-6,5.4-14.9-0.2-19.9
					C1925.7,2498.5,1916.8,2499.3,1911.4,2505.3z"/>
				<path fill="#486272" d="M2031.1,2517.3c-8.3-6.8-21.1-5-28.6,4.1c-7.5,9.1-7,22,1.3,28.9c8.3,6.8,21.1,5,28.6-4.1
					C2039.9,2537.1,2039.3,2524.2,2031.1,2517.3z"/>
				<path fill="#486272" d="M2063.8,2547.3c-5.8-4.7-14.6-3.6-19.8,2.7c-5.2,6.2-4.7,15.1,1.1,19.9c5.7,4.8,14.6,3.6,19.8-2.7
					C2070,2560.9,2069.5,2552,2063.8,2547.3z"/>
				<path fill="#486272" d="M1971.4,2521.5c5.8,4.8,14.6,3.5,19.8-2.7c5.2-6.2,4.7-15.2-1-19.9c-5.7-4.8-14.6-3.6-19.8,2.7
					C1965.2,2507.8,1965.7,2516.7,1971.4,2521.5z"/>
				<path fill="#486272" d="M1964.6,2471.3c5.8,4.8,14.6,3.6,19.8-2.7c5.2-6.2,4.7-15.1-1.1-19.9c-5.7-4.8-14.6-3.6-19.7,2.7
					C1958.4,2457.6,1958.9,2466.5,1964.6,2471.3z"/>
				<path fill="#486272" d="M2083.7,2458.1c-8.6-6.5-21.3-4.1-28.4,5.4c-7.1,9.4-6,22.3,2.6,28.8c8.6,6.5,21.3,4.1,28.4-5.3
					C2093.4,2477.5,2092.2,2464.6,2083.7,2458.1z"/>
				<path fill="#486272" d="M2117.7,2486.6c-6-4.5-14.7-2.9-19.6,3.5c-4.9,6.4-4,15.3,1.9,19.8c5.9,4.5,14.7,2.9,19.6-3.5
					C2124.5,2500,2123.6,2491.1,2117.7,2486.6z"/>
				<path fill="#486272" d="M2024.3,2464.9c6,4.5,14.7,2.9,19.6-3.6c4.9-6.4,4-15.3-1.9-19.8c-6-4.5-14.7-2.9-19.6,3.5
					C2017.5,2451.5,2018.3,2460.4,2024.3,2464.9z"/>
				<path fill="#486272" d="M2015.3,2415.1c6,4.5,14.7,2.9,19.6-3.5c4.9-6.5,4-15.3-1.9-19.8c-5.9-4.5-14.7-2.9-19.6,3.5
					C2008.5,2401.7,2009.3,2410.6,2015.3,2415.1z"/>
				<path fill="#486272" d="M2133.6,2396.7c-8.8-6.1-21.4-3.1-28.1,6.6c-6.7,9.7-5,22.6,3.8,28.6c8.8,6.1,21.4,3.1,28.1-6.6
					C2144.1,2415.6,2142.4,2402.8,2133.6,2396.7z"/>
				<path fill="#486272" d="M2168.8,2423.6c-6.2-4.2-14.8-2.3-19.5,4.4c-4.6,6.7-3.3,15.5,2.8,19.7c6.1,4.2,14.8,2.3,19.4-4.4
					C2176.2,2436.7,2174.9,2427.9,2168.8,2423.6z"/>
				<path fill="#486272" d="M2091.2,2381.9c-6.1-4.2-14.8-2.3-19.4,4.4c-4.6,6.7-3.3,15.5,2.8,19.7c6.2,4.2,14.8,2.2,19.4-4.4
					C2098.6,2395,2097.3,2386.2,2091.2,2381.9z"/>
				<path fill="#486272" d="M2063.4,2356.7c6.1,4.2,14.9,2.3,19.4-4.4c4.6-6.7,3.3-15.5-2.8-19.7c-6.1-4.2-14.8-2.3-19.4,4.4
					C2056,2343.6,2057.2,2352.5,2063.4,2356.7z"/>
				<path fill="#486272" d="M2180.8,2333.1c-9.1-5.7-21.5-2.2-27.8,7.8c-6.3,10-4,22.8,5.1,28.4c9.1,5.7,21.5,2.2,27.8-7.8
					C2192.1,2351.5,2189.9,2338.8,2180.8,2333.1z"/>
				<path fill="#486272" d="M2217.2,2358.5c-6.3-3.9-14.9-1.6-19.2,5.3c-4.3,6.9-2.6,15.6,3.7,19.6c6.3,4,14.9,1.6,19.2-5.2
					C2225.1,2371.2,2223.5,2362.4,2217.2,2358.5z"/>
				<path fill="#486272" d="M2137.8,2320.2c-6.3-4-14.9-1.6-19.2,5.3c-4.3,6.9-2.7,15.6,3.7,19.6c6.3,3.9,14.9,1.6,19.2-5.3
					C2145.7,2333,2144.1,2324.2,2137.8,2320.2z"/>
				<path fill="#486272" d="M2108.9,2296.2c6.3,4,14.9,1.6,19.2-5.2c4.3-6.9,2.6-15.6-3.7-19.6c-6.3-4-14.9-1.6-19.2,5.2
					C2100.9,2283.5,2102.5,2292.3,2108.9,2296.2z"/>
				<path fill="#486272" d="M2225.1,2267.5c-9.3-5.3-21.6-1.2-27.5,9.1c-5.8,10.3-3,22.9,6.3,28.2c9.3,5.3,21.6,1.2,27.4-9
					C2237.3,2285.4,2234.4,2272.8,2225.1,2267.5z"/>
				<path fill="#486272" d="M2262.6,2291.2c-6.5-3.7-15-0.9-19,6.1c-4,7-2,15.7,4.5,19.4c6.5,3.7,15,1,19-6.1
					C2271.1,2303.6,2269,2294.9,2262.6,2291.2z"/>
				<path fill="#486272" d="M2162.6,2262.6c-4,7-2,15.7,4.5,19.4c6.5,3.7,15,0.9,19-6.1c4-7,2-15.7-4.5-19.4
					C2175.1,2252.9,2166.6,2255.6,2162.6,2262.6z"/>
				<path fill="#486272" d="M2151.6,2233.8c6.5,3.7,15,1,19-6.1c4-7.1,2-15.7-4.5-19.4c-6.5-3.7-15-0.9-19,6.1
					C2143.1,2221.5,2145.1,2230.2,2151.6,2233.8z"/>
				<path fill="#486272" d="M2266.5,2200c-9.6-4.9-21.7-0.3-27,10.3c-5.4,10.5-2,23,7.6,27.9c9.6,4.9,21.7,0.3,27-10.3
					C2279.4,2217.3,2276.1,2204.9,2266.5,2200z"/>
				<path fill="#486272" d="M2305,2222.1c-6.7-3.4-15-0.3-18.7,6.9c-3.7,7.2-1.3,15.8,5.4,19.2c6.6,3.4,15,0.3,18.7-6.9
					C2314,2234,2311.6,2225.5,2305,2222.1z"/>
				<path fill="#486272" d="M2203.8,2197.9c-3.7,7.2-1.3,15.8,5.4,19.2c6.6,3.4,15,0.3,18.7-6.9c3.7-7.2,1.3-15.8-5.4-19.2
					C2215.9,2187.6,2207.5,2190.7,2203.8,2197.9z"/>
				<path fill="#486272" d="M2210.3,2162.7c3.7-7.2,1.3-15.8-5.4-19.2c-6.6-3.4-15-0.3-18.7,6.9c-3.7,7.2-1.3,15.8,5.4,19.2
					C2198.3,2173,2206.6,2169.9,2210.3,2162.7z"/>
				<path fill="#486272" d="M2304.9,2130.7c-9.8-4.4-21.6,0.7-26.5,11.4c-4.9,10.8-0.9,23.1,8.8,27.5c9.8,4.4,21.6-0.7,26.5-11.4
					C2318.6,2147.5,2314.6,2135.2,2304.9,2130.7z"/>
				<path fill="#486272" d="M2344.3,2151.1c-6.8-3.1-15,0.4-18.4,7.8c-3.3,7.4-0.6,15.8,6.2,18.9c6.8,3.1,15-0.4,18.4-7.7
					C2353.8,2162.7,2351,2154.2,2344.3,2151.1z"/>
				<path fill="#486272" d="M2248.4,2150.3c6.8,3.1,15-0.4,18.4-7.8c3.4-7.4,0.6-15.9-6.2-18.9c-6.8-3.1-15,0.4-18.4,7.7
					C2238.8,2138.8,2241.6,2147.2,2248.4,2150.3z"/>
				<path fill="#486272" d="M2247.1,2095.9c3.4-7.4,0.6-15.8-6.2-18.9c-6.8-3.1-15,0.4-18.4,7.7c-3.4,7.4-0.6,15.9,6.2,18.9
					C2235.5,2106.8,2243.7,2103.3,2247.1,2095.9z"/>
				<path fill="#486272" d="M2350.2,2087c4.4-11,0-23.1-10-27.1c-10-4-21.6,1.6-26,12.6c-4.4,11,0.1,23.1,10,27.1
					C2334.1,2103.6,2345.7,2097.9,2350.2,2087z"/>
				<path fill="#486272" d="M2380.4,2078.4c-6.9-2.8-15,1-18,8.6c-3,7.5,0.1,15.9,7.1,18.6c6.9,2.8,15-1,18-8.5
					C2390.5,2089.6,2387.3,2081.2,2380.4,2078.4z"/>
				<path fill="#486272" d="M2284.6,2081.9c6.9,2.8,15-1,18-8.6c3-7.5-0.1-15.9-7-18.6c-6.9-2.8-15,1-18,8.5
					C2274.5,2070.8,2277.7,2079.1,2284.6,2081.9z"/>
				<path fill="#486272" d="M2280.9,2027.6c3-7.5-0.1-15.9-7.1-18.6c-6.9-2.8-15,1-18,8.5c-3,7.5,0.1,15.9,7,18.6
					C2269.8,2039,2277.9,2035.2,2280.9,2027.6z"/>
				<path fill="#486272" d="M2383.5,2014.1c3.9-11.1-1.1-23.1-11.2-26.6c-10.1-3.6-21.5,2.6-25.4,13.7c-3.9,11.1,1.1,23.1,11.2,26.6
					C2368.2,2031.4,2379.5,2025.3,2383.5,2014.1z"/>
				<path fill="#486272" d="M2413.3,2004.3c-7-2.5-14.9,1.7-17.6,9.3c-2.7,7.6,0.8,15.8,7.9,18.3c7,2.5,14.9-1.7,17.6-9.3
					C2423.9,2015,2420.3,2006.8,2413.3,2004.3z"/>
				<path fill="#486272" d="M2317.8,2012c7,2.5,14.9-1.7,17.6-9.3c2.7-7.6-0.8-15.8-7.9-18.3c-7-2.5-14.9,1.7-17.6,9.3
					C2307.2,2001.3,2310.7,2009.5,2317.8,2012z"/>
				<path fill="#486272" d="M2311.7,1957.9c2.7-7.6-0.8-15.8-7.9-18.3c-7-2.5-14.9,1.7-17.6,9.3c-2.7,7.7,0.8,15.8,7.9,18.3
					C2301.1,1969.7,2309,1965.6,2311.7,1957.9z"/>
				<path fill="#486272" d="M2413.5,1939.9c3.4-11.3-2.1-23-12.3-26.1c-10.3-3.1-21.4,3.5-24.8,14.8c-3.4,11.3,2.1,23,12.3,26.1
					C2399,1957.8,2410.1,1951.2,2413.5,1939.9z"/>
				<path fill="#486272" d="M2442.9,1928.7c-7.1-2.1-14.8,2.4-17.2,10.1c-2.3,7.7,1.5,15.8,8.7,17.9c7.1,2.2,14.8-2.3,17.2-10.1
					C2453.9,1939,2450.1,1930.9,2442.9,1928.7z"/>
				<path fill="#486272" d="M2347.8,1940.7c7.1,2.2,14.8-2.4,17.2-10.1c2.3-7.7-1.5-15.8-8.7-17.9c-7.1-2.2-14.8,2.3-17.2,10.1
					C2336.8,1930.4,2340.7,1938.5,2347.8,1940.7z"/>
				<path fill="#486272" d="M2330.6,1869c-7.1-2.2-14.8,2.3-17.2,10.1c-2.4,7.8,1.5,15.8,8.7,18c7.1,2.2,14.8-2.4,17.2-10.1
					C2341.7,1879.2,2337.8,1871.1,2330.6,1869z"/>
				<path fill="#486272" d="M2416.2,1880.3c10.4,2.7,21.2-4.5,24.1-15.9c2.9-11.4-3.1-22.9-13.5-25.6c-10.4-2.7-21.2,4.5-24.1,15.9
					C2399.8,1866.2,2405.8,1877.7,2416.2,1880.3z"/>
				<path fill="#486272" d="M2469.2,1852c-7.2-1.8-14.7,3-16.7,10.9c-2,7.8,2.2,15.7,9.5,17.5c7.2,1.9,14.7-3,16.7-10.8
					C2480.6,1861.7,2476.4,1853.8,2469.2,1852z"/>
				<path fill="#486272" d="M2374.7,1868.1c7.2,1.8,14.7-3,16.7-10.9c2-7.8-2.2-15.7-9.4-17.5c-7.2-1.8-14.7,3-16.7,10.9
					C2363.2,1858.4,2367.4,1866.2,2374.7,1868.1z"/>
				<path fill="#486272" d="M2347.1,1825.6c7.2,1.9,14.7-3,16.7-10.8c2-7.8-2.2-15.7-9.5-17.5c-7.2-1.9-14.7,3-16.7,10.8
					C2335.6,1815.9,2339.9,1823.7,2347.1,1825.6z"/>
				<path fill="#486272" d="M2463.7,1787.8c2.4-11.6-4.1-22.7-14.6-24.9c-10.5-2.2-21,5.4-23.4,17c-2.4,11.6,4.1,22.7,14.6,24.9
					C2450.8,1807,2461.3,1799.4,2463.7,1787.8z"/>
				<path fill="#486272" d="M2492,1774.1c-7.3-1.5-14.6,3.7-16.2,11.6c-1.6,7.9,2.9,15.6,10.2,17.1c7.3,1.5,14.6-3.6,16.2-11.6
					C2503.9,1783.3,2499.3,1775.7,2492,1774.1z"/>
				<path fill="#486272" d="M2398.3,1794.4c7.3,1.5,14.6-3.7,16.2-11.6c1.7-7.9-2.9-15.6-10.2-17.1c-7.3-1.5-14.6,3.6-16.2,11.6
					C2386.4,1785.2,2391,1792.8,2398.3,1794.4z"/>
				<path fill="#486272" d="M2385.1,1741.6c1.7-7.9-2.9-15.6-10.2-17.1c-7.3-1.5-14.6,3.6-16.2,11.6c-1.7,7.9,2.9,15.6,10.2,17.1
					C2376.2,1754.7,2383.4,1749.5,2385.1,1741.6z"/>
				<path fill="#486272" d="M2483.7,1710.3c1.9-11.7-5.1-22.5-15.7-24.3c-10.6-1.7-20.7,6.3-22.6,18c-1.9,11.7,5.1,22.5,15.7,24.3
					C2471.7,1730,2481.8,1721.9,2483.7,1710.3z"/>
				<path fill="#486272" d="M2511.4,1695.3c-7.4-1.2-14.4,4.3-15.7,12.3c-1.3,8,3.6,15.4,11,16.6c7.4,1.2,14.4-4.3,15.7-12.3
					C2523.6,1704,2518.7,1696.5,2511.4,1695.3z"/>
				<path fill="#486272" d="M2418.6,1719.7c7.4,1.2,14.4-4.3,15.7-12.3c1.3-8-3.6-15.5-11-16.6c-7.4-1.2-14.4,4.3-15.7,12.3
					C2406.4,1711,2411.3,1718.5,2418.6,1719.7z"/>
				<path fill="#486272" d="M2403.1,1667.5c1.3-8-3.6-15.4-11-16.6c-7.3-1.2-14.4,4.3-15.7,12.3c-1.3,8,3.6,15.5,10.9,16.7
					C2394.8,1681,2401.8,1675.5,2403.1,1667.5z"/>
				<path fill="#486272" d="M2500.3,1631.9c1.4-11.7-6.1-22.3-16.7-23.6c-10.7-1.3-20.4,7.2-21.8,19c-1.4,11.7,6.1,22.3,16.7,23.5
					C2489.1,1652.1,2498.9,1643.6,2500.3,1631.9z"/>
				<path fill="#486272" d="M2527.3,1615.8c-7.4-0.9-14.2,4.9-15.2,13c-0.9,8,4.3,15.3,11.7,16.1c7.4,0.9,14.2-4.9,15.2-13
					C2539.9,1623.9,2534.7,1616.7,2527.3,1615.8z"/>
				<path fill="#486272" d="M2450.8,1631.2c1-8-4.3-15.3-11.7-16.2c-7.4-0.9-14.2,4.9-15.1,13c-1,8,4.3,15.3,11.7,16.1
					C2443.1,1645.1,2449.9,1639.3,2450.8,1631.2z"/>
				<path fill="#486272" d="M2417.9,1592.8c1-8-4.3-15.3-11.7-16.1c-7.4-0.9-14.2,4.9-15.1,12.9c-1,8.1,4.3,15.3,11.7,16.2
					C2410.2,1606.6,2417,1600.8,2417.9,1592.8z"/>
				<path fill="#486272" d="M2513.4,1552.9c0.9-11.8-7.1-22-17.7-22.8c-10.7-0.8-20.1,8.1-21,19.9c-0.9,11.8,7.1,22,17.8,22.8
					C2503.1,1573.6,2512.5,1564.7,2513.4,1552.9z"/>
				<path fill="#486272" d="M2539.6,1535.6c-7.4-0.5-14,5.5-14.6,13.6c-0.6,8.1,5,15.1,12.4,15.6c7.4,0.6,14-5.5,14.6-13.6
					C2552.6,1543.1,2547,1536.1,2539.6,1535.6z"/>
				<path fill="#486272" d="M2464,1554.4c0.6-8.1-5-15.1-12.4-15.6c-7.4-0.5-13.9,5.5-14.6,13.6c-0.6,8.1,4.9,15.1,12.4,15.6
					C2456.8,1568.6,2463.3,1562.5,2464,1554.4z"/>
				<path fill="#486272" d="M2414.8,1531c7.4,0.6,14-5.5,14.6-13.6c0.6-8.1-5-15.1-12.4-15.6c-7.4-0.6-13.9,5.5-14.6,13.6
					C2401.8,1523.5,2407.4,1530.5,2414.8,1531z"/>
				<path fill="#486272" d="M2523,1473.4c0.4-11.8-8-21.7-18.7-22c-10.7-0.3-19.7,9-20.1,20.8c-0.4,11.8,8.1,21.7,18.7,22
					C2513.6,1494.5,2522.6,1485.2,2523,1473.4z"/>
				<path fill="#486272" d="M2548.4,1454.9c-7.5-0.2-13.7,6.2-14,14.3c-0.2,8.1,5.6,14.8,13.1,15c7.5,0.2,13.7-6.1,14-14.2
					C2561.7,1461.9,2555.9,1455.2,2548.4,1454.9z"/>
				<path fill="#486272" d="M2473.7,1477.1c0.2-8.1-5.6-14.8-13.1-15.1c-7.5-0.2-13.7,6.1-13.9,14.2c-0.2,8.1,5.6,14.8,13.1,15.1
					C2467.2,1491.5,2473.4,1485.1,2473.7,1477.1z"/>
				<path fill="#486272" d="M2437.5,1441.7c0.2-8.1-5.6-14.8-13.1-15.1c-7.4-0.2-13.7,6.1-13.9,14.2c-0.2,8.1,5.6,14.8,13.1,15.1
					C2431,1456.1,2437.2,1449.7,2437.5,1441.7z"/>
				<path fill="#486272" d="M2509.4,1372.4c-10.7,0.2-19.3,9.8-19.1,21.7c0.2,11.8,9,21.3,19.7,21.1c10.7-0.2,19.3-9.8,19.1-21.7
					C2528.9,1381.7,2520.1,1372.2,2509.4,1372.4z"/>
				<path fill="#486272" d="M2553.7,1374c-7.5,0.1-13.4,6.7-13.3,14.9c0.1,8.1,6.3,14.6,13.7,14.5c7.5-0.1,13.4-6.7,13.3-14.8
					C2567.3,1380.3,2561.1,1373.9,2553.7,1374z"/>
				<path fill="#486272" d="M2480,1399.4c-0.1-8.1-6.3-14.6-13.7-14.5c-7.5,0.1-13.4,6.7-13.3,14.8c0.1,8.1,6.2,14.6,13.7,14.5
					C2474.1,1414.1,2480.1,1407.5,2480,1399.4z"/>
				<path fill="#486272" d="M2442.2,1365.6c-0.1-8.1-6.3-14.6-13.7-14.5c-7.4,0.1-13.4,6.7-13.3,14.8c0.1,8.1,6.3,14.6,13.7,14.5
					C2436.4,1380.3,2442.4,1373.7,2442.2,1365.6z"/>
				<path fill="#486272" d="M2531.6,1313.5c-0.7-11.8-9.9-20.9-20.6-20.2c-10.7,0.6-18.8,10.7-18.2,22.5
					c0.7,11.8,9.9,20.9,20.6,20.2C2524.2,1335.3,2532.3,1325.3,2531.6,1313.5z"/>
				<path fill="#486272" d="M2555.3,1292.8c-7.4,0.5-13.1,7.3-12.6,15.4c0.5,8.1,6.9,14.3,14.3,13.8c7.4-0.4,13.1-7.3,12.6-15.4
					C2569.2,1298.6,2562.8,1292.4,2555.3,1292.8z"/>
				<path fill="#486272" d="M2482.8,1321.5c-0.5-8.1-6.9-14.3-14.3-13.8c-7.4,0.4-13.1,7.3-12.6,15.4c0.5,8.1,6.9,14.3,14.3,13.9
					C2477.6,1336.5,2483.3,1329.6,2482.8,1321.5z"/>
				<path fill="#486272" d="M2443.7,1289.4c-0.5-8.1-6.9-14.3-14.3-13.8c-7.4,0.4-13.1,7.3-12.6,15.4c0.5,8.1,6.9,14.3,14.3,13.9
					C2438.5,1304.4,2444.1,1297.5,2443.7,1289.4z"/>
				<path fill="#486272" d="M2509.2,1214.1c-10.7,1.1-18.3,11.5-17.1,23.3c1.2,11.8,10.8,20.4,21.5,19.3
					c10.7-1.1,18.3-11.5,17.1-23.3C2529.4,1221.6,2519.8,1213,2509.2,1214.1z"/>
				<path fill="#486272" d="M2553.4,1211.7c-7.4,0.8-12.8,7.9-12,16c0.8,8,7.5,14,14.9,13.2c7.4-0.8,12.8-7.9,12-16
					C2567.5,1216.9,2560.8,1211,2553.4,1211.7z"/>
				<path fill="#486272" d="M2467.3,1230.3c-7.4,0.8-12.8,7.9-11.9,16c0.8,8,7.5,14,14.9,13.2c7.4-0.8,12.8-7.9,11.9-16
					C2481.4,1235.5,2474.7,1229.6,2467.3,1230.3z"/>
				<path fill="#486272" d="M2426.8,1200c-7.4,0.7-12.8,7.9-11.9,15.9c0.8,8.1,7.5,14,14.9,13.2c7.4-0.8,12.8-7.9,11.9-16
					C2440.9,1205.2,2434.2,1199.3,2426.8,1200z"/>
				<path fill="#486272" d="M2503.8,1135.1c-10.6,1.6-17.8,12.3-16.1,24c1.7,11.7,11.7,19.9,22.3,18.3c10.6-1.6,17.8-12.3,16.1-24
					C2524.4,1141.7,2514.4,1133.5,2503.8,1135.1z"/>
				<path fill="#486272" d="M2547.9,1130.8c-7.4,1.1-12.4,8.5-11.2,16.5c1.2,8,8.1,13.6,15.5,12.5c7.4-1.1,12.4-8.4,11.2-16.5
					C2562.3,1135.3,2555.3,1129.7,2547.9,1130.8z"/>
				<path fill="#486272" d="M2462.7,1153.2c-7.4,1.1-12.4,8.5-11.2,16.5c1.2,8,8.1,13.6,15.5,12.5c7.4-1.1,12.4-8.5,11.2-16.5
					C2477.1,1157.7,2470.1,1152.1,2462.7,1153.2z"/>
				<path fill="#486272" d="M2420.9,1124.7c-7.4,1.1-12.4,8.5-11.2,16.4c1.2,8,8.1,13.6,15.5,12.5c7.4-1.1,12.4-8.5,11.2-16.5
					C2435.2,1129.2,2428.3,1123.6,2420.9,1124.7z"/>
				<path fill="#486272" d="M2495,1056.4c-10.5,2-17.3,13.1-15,24.7c2.2,11.6,12.6,19.4,23.1,17.3c10.5-2,17.3-13.1,15-24.7
					C2515.9,1062.1,2505.5,1054.3,2495,1056.4z"/>
				<path fill="#486272" d="M2538.9,1050.1c-7.3,1.4-12,9-10.5,17c1.5,7.9,8.7,13.2,16,11.8c7.3-1.4,12-9,10.5-16.9
					C2553.4,1054,2546.2,1048.8,2538.9,1050.1z"/>
				<path fill="#486272" d="M2454.8,1076.3c-7.3,1.4-12,9-10.5,17c1.5,7.9,8.7,13.2,16,11.8c7.3-1.4,12-9,10.5-17
					C2469.3,1080.2,2462.1,1074.9,2454.8,1076.3z"/>
				<path fill="#486272" d="M2411.7,1049.7c-7.3,1.4-12,9-10.5,16.9c1.5,8,8.7,13.3,16,11.8c7.3-1.4,12-9,10.5-16.9
					C2426.2,1053.5,2419,1048.2,2411.7,1049.7z"/>
				<path fill="#486272" d="M2482.7,978.2c-10.5,2.5-16.7,13.8-13.9,25.3c2.7,11.5,13.4,18.8,23.8,16.3
					c10.4-2.5,16.7-13.8,13.9-25.3C2503.8,983,2493.1,975.7,2482.7,978.2z"/>
				<path fill="#486272" d="M2516.6,987.4c1.9,7.9,9.3,12.8,16.5,11.1c7.3-1.7,11.6-9.5,9.7-17.4c-1.9-7.9-9.3-12.8-16.5-11.1
					C2519,971.7,2514.7,979.5,2516.6,987.4z"/>
				<path fill="#486272" d="M2443.4,999.8c-7.3,1.7-11.6,9.5-9.7,17.4c1.9,7.9,9.3,12.8,16.5,11.1c7.3-1.7,11.6-9.5,9.7-17.4
					C2458.1,1003.1,2450.6,998.1,2443.4,999.8z"/>
				<path fill="#486272" d="M2389.5,992.5c1.9,7.9,9.3,12.9,16.5,11.1c7.3-1.7,11.6-9.5,9.7-17.4c-1.9-7.9-9.3-12.8-16.5-11.1
					C2392,976.8,2387.6,984.6,2389.5,992.5z"/>
				<path fill="#486272" d="M2467,900.5c-10.3,3-16,14.6-12.8,25.9c3.3,11.4,14.3,18.2,24.5,15.2c10.3-2.9,16-14.5,12.8-25.9
					C2488.3,904.4,2477.3,897.6,2467,900.5z"/>
				<path fill="#486272" d="M2501.2,908.3c2.2,7.8,9.9,12.4,17,10.4c7.2-2,11.2-10,9-17.8c-2.2-7.8-9.9-12.4-17-10.4
					C2503,892.5,2499,900.5,2501.2,908.3z"/>
				<path fill="#486272" d="M2428.7,923.9c-7.2,2.1-11.2,10-9,17.8c2.2,7.8,9.8,12.4,17,10.4c7.2-2.1,11.2-10,9-17.8
					C2443.5,926.5,2435.8,921.9,2428.7,923.9z"/>
				<path fill="#486272" d="M2383.4,901.2c-7.2,2-11.2,10-9,17.8c2.2,7.8,9.9,12.4,17,10.4c7.2-2,11.2-10,9-17.8
					C2398.2,903.8,2390.6,899.1,2383.4,901.2z"/>
				<path fill="#486272" d="M2447.9,823.7c-10.2,3.4-15.4,15.2-11.6,26.5c3.8,11.2,15,17.5,25.2,14.1c10.2-3.4,15.4-15.2,11.6-26.5
					C2469.3,826.7,2458,820.3,2447.9,823.7z"/>
				<path fill="#486272" d="M2482.4,829.9c2.6,7.7,10.4,12,17.5,9.6c7.1-2.4,10.7-10.5,8.2-18.2c-2.6-7.7-10.4-12-17.5-9.6
					C2483.5,814.1,2479.8,822.3,2482.4,829.9z"/>
				<path fill="#486272" d="M2410.6,848.8c-7.1,2.4-10.7,10.5-8.2,18.2c2.6,7.7,10.4,12,17.5,9.6c7.1-2.4,10.7-10.5,8.2-18.2
					C2425.5,850.7,2417.7,846.4,2410.6,848.8z"/>
				<path fill="#486272" d="M2364.4,828c-7.1,2.3-10.7,10.5-8.2,18.2c2.6,7.7,10.4,12,17.5,9.6c7.1-2.4,10.7-10.5,8.2-18.2
					C2379.3,830,2371.5,825.7,2364.4,828z"/>
				<path fill="#486272" d="M2425.4,747.8c-10,3.9-14.7,15.9-10.4,27c4.2,11,15.8,16.9,25.8,13c10-3.8,14.7-15.9,10.4-26.9
					C2446.9,749.8,2435.4,744,2425.4,747.8z"/>
				<path fill="#486272" d="M2460.2,752.5c2.9,7.5,10.9,11.5,17.9,8.8c7-2.7,10.3-11,7.4-18.5c-2.9-7.6-10.9-11.5-17.9-8.8
					C2460.6,736.7,2457.3,744.9,2460.2,752.5z"/>
				<path fill="#486272" d="M2381.9,793c2.9,7.6,10.9,11.5,17.9,8.8c7-2.7,10.2-11,7.3-18.5c-2.9-7.5-10.9-11.5-17.9-8.8
					C2382.3,777.1,2379,785.4,2381.9,793z"/>
				<path fill="#486272" d="M2342.2,755.8c-7,2.7-10.2,11-7.4,18.5c2.9,7.6,10.9,11.5,17.9,8.9c7-2.7,10.3-11,7.4-18.5
					C2357.2,757.1,2349.2,753.1,2342.2,755.8z"/>
				<path fill="#486272" d="M2399.6,672.9c-9.8,4.3-14,16.5-9.2,27.4c4.7,10.8,16.5,16.1,26.3,11.9c9.8-4.3,14-16.5,9.2-27.4
					C2421.2,674,2409.4,668.7,2399.6,672.9z"/>
				<path fill="#486272" d="M2452.7,684.1c6.8-3,9.8-11.4,6.5-18.8c-3.2-7.4-11.4-11-18.2-8c-6.8,3-9.8,11.4-6.5,18.8
					C2437.7,683.5,2445.9,687.1,2452.7,684.1z"/>
				<path fill="#486272" d="M2364.7,701.2c-6.8,3-9.8,11.4-6.5,18.8c3.2,7.4,11.4,11,18.2,8c6.8-3,9.8-11.4,6.5-18.8
					C2379.7,701.8,2371.5,698.2,2364.7,701.2z"/>
				<path fill="#486272" d="M2316.8,684.6c-6.8,3-9.8,11.4-6.5,18.8c3.2,7.4,11.4,11,18.2,8.1c6.8-3,9.8-11.4,6.5-18.8
					C2331.8,685.2,2323.7,681.6,2316.8,684.6z"/>
				<path fill="#486272" d="M2362.4,627.1c5.2,10.6,17.2,15.4,26.8,10.7c9.6-4.7,13.2-17.1,8-27.8c-5.2-10.6-17.2-15.4-26.8-10.7
					C2360.8,604,2357.2,616.5,2362.4,627.1z"/>
				<path fill="#486272" d="M2424.1,608.1c6.7-3.3,9.3-11.8,5.7-19.1c-3.6-7.3-11.9-10.5-18.6-7.2c-6.7,3.3-9.2,11.8-5.7,19.1
					C2409.1,608.2,2417.4,611.4,2424.1,608.1z"/>
				<path fill="#486272" d="M2336.8,629c-6.7,3.3-9.2,11.8-5.7,19.1c3.6,7.3,11.9,10.5,18.6,7.2c6.7-3.3,9.2-11.8,5.7-19.1
					C2351.9,629,2343.5,625.8,2336.8,629z"/>
				<path fill="#486272" d="M2288.3,614.6c-6.7,3.3-9.2,11.8-5.7,19.1c3.6,7.3,11.9,10.5,18.6,7.2c6.7-3.3,9.3-11.8,5.7-19.1
					C2303.3,614.6,2295,611.3,2288.3,614.6z"/>
				<path fill="#486272" d="M2338.2,527c-9.4,5.2-12.5,17.7-6.8,28.1c5.7,10.4,17.9,14.6,27.3,9.5c9.4-5.1,12.5-17.7,6.8-28.1
					C2359.8,526.2,2347.6,521.9,2338.2,527z"/>
				<path fill="#486272" d="M2392.1,533.5c6.6-3.6,8.7-12.2,4.9-19.3c-3.9-7.1-12.3-10-18.9-6.4c-6.5,3.6-8.7,12.2-4.9,19.3
					C2377.1,534.2,2385.6,537.1,2392.1,533.5z"/>
				<path fill="#486272" d="M2305.9,558.2c-6.5,3.6-8.7,12.2-4.8,19.3c3.9,7.1,12.3,10,18.9,6.4c6.6-3.6,8.7-12.2,4.8-19.3
					C2320.9,557.5,2312.4,554.6,2305.9,558.2z"/>
				<path fill="#486272" d="M2256.8,545.9c-6.6,3.5-8.7,12.2-4.9,19.3c3.9,7.1,12.3,10,18.9,6.4c6.6-3.6,8.7-12.2,4.8-19.3
					C2271.7,545.2,2263.3,542.4,2256.8,545.9z"/>
				<path fill="#486272" d="M2302.7,456.2c-9.2,5.6-11.7,18.2-5.6,28.4c6.1,10.1,18.5,13.8,27.7,8.3c9.2-5.5,11.7-18.2,5.5-28.4
					C2324.3,454.4,2311.9,450.7,2302.7,456.2z"/>
				<path fill="#486272" d="M2356.9,460.3c6.4-3.8,8.2-12.6,4-19.5c-4.2-6.9-12.8-9.4-19.1-5.6c-6.4,3.9-8.2,12.6-4,19.5
					C2341.9,461.7,2350.5,464.2,2356.9,460.3z"/>
				<path fill="#486272" d="M2271.8,488.8c-6.4,3.9-8.2,12.6-4,19.5c4.2,6.9,12.7,9.4,19.1,5.6c6.4-3.9,8.2-12.6,4-19.5
					C2286.8,487.5,2278.2,485,2271.8,488.8z"/>
				<path fill="#486272" d="M2222.2,478.7c-6.4,3.8-8.2,12.6-4,19.5c4.2,6.9,12.8,9.4,19.1,5.6c6.4-3.9,8.2-12.6,4-19.5
					C2237.1,477.3,2228.6,474.9,2222.2,478.7z"/>
				<path fill="#486272" d="M2264.1,387.1c-8.9,6-10.8,18.7-4.3,28.6c6.5,9.8,19.1,13,28,7.1c8.9-5.9,10.9-18.7,4.3-28.6
					C2285.6,384.3,2273.1,381.1,2264.1,387.1z"/>
				<path fill="#486272" d="M2318.4,388.8c6.2-4.1,7.6-12.9,3.1-19.7c-4.5-6.7-13.2-8.8-19.4-4.7c-6.2,4.1-7.6,12.9-3.1,19.7
					C2303.6,390.8,2312.3,392.9,2318.4,388.8z"/>
				<path fill="#486272" d="M2234.7,421c-6.2,4.1-7.6,12.9-3.1,19.7c4.5,6.7,13.1,8.9,19.4,4.7c6.2-4.2,7.6-13,3.1-19.7
					C2249.6,419,2240.9,416.9,2234.7,421z"/>
				<path fill="#486272" d="M2200.9,437.5c6.2-4.1,7.6-12.9,3.1-19.7c-4.5-6.7-13.2-8.8-19.4-4.7c-6.2,4.1-7.6,12.9-3.1,19.7
					C2186.1,439.5,2194.7,441.6,2200.9,437.5z"/>
				<path fill="#486272" d="M2222.6,319.7c-8.7,6.4-10,19.2-3,28.7c7,9.5,19.7,12.1,28.3,5.8c8.7-6.3,10-19.2,3-28.7
					C2243.9,316,2231.2,313.4,2222.6,319.7z"/>
				<path fill="#486272" d="M2276.9,319c6-4.4,7-13.2,2.3-19.8c-4.8-6.5-13.5-8.2-19.6-3.9c-6,4.4-7,13.3-2.3,19.8
					C2262.1,321.7,2270.9,323.4,2276.9,319z"/>
				<path fill="#486272" d="M2214.2,358.7c-4.8-6.5-13.5-8.2-19.6-3.9c-6,4.4-7,13.3-2.2,19.8c4.8,6.5,13.5,8.3,19.6,3.9
					C2218,374.1,2219,365.3,2214.2,358.7z"/>
				<path fill="#486272" d="M2161.7,372.8c6-4.4,7-13.3,2.3-19.8c-4.8-6.5-13.5-8.2-19.5-3.8c-6,4.4-7,13.3-2.3,19.8
					C2146.9,375.5,2155.7,377.2,2161.7,372.8z"/>
				<path fill="#486272" d="M2178.1,254.2c-8.4,6.7-9.2,19.6-1.8,28.9c7.4,9.2,20.2,11.3,28.5,4.6c8.4-6.7,9.2-19.6,1.8-28.8
					C2199.2,249.6,2186.4,247.5,2178.1,254.2z"/>
				<path fill="#486272" d="M2232.3,251.1c5.8-4.7,6.5-13.5,1.4-19.9c-5.1-6.3-13.9-7.6-19.7-3c-5.8,4.7-6.4,13.6-1.4,19.9
					C2217.7,254.4,2226.5,255.8,2232.3,251.1z"/>
				<path fill="#486272" d="M2151.7,290.6c-5.8,4.7-6.4,13.6-1.4,19.9c5.1,6.3,13.9,7.7,19.7,3c5.8-4.7,6.4-13.6,1.4-19.9
					C2166.4,287.3,2157.6,285.9,2151.7,290.6z"/>
				<path fill="#486272" d="M2099.9,307c5.1,6.3,13.9,7.7,19.7,3c5.8-4.7,6.4-13.6,1.4-19.9c-5.1-6.3-13.9-7.6-19.7-3
					C2095.4,291.7,2094.8,300.7,2099.9,307z"/>
				<path fill="#486272" d="M2130.2,219.6c7.8,8.9,20.7,10.4,28.7,3.3c8.1-7.1,8.3-20,0.5-28.9c-7.8-8.9-20.6-10.4-28.7-3.3
					C2122.6,197.8,2122.4,210.7,2130.2,219.6z"/>
				<path fill="#486272" d="M2184.8,185.2c5.6-4.9,5.8-13.8,0.5-19.9c-5.3-6.1-14.2-7-19.8-2.1c-5.6,4.9-5.8,13.8-0.5,19.9
					C2170.3,189.2,2179.2,190.2,2184.8,185.2z"/>
				<path fill="#486272" d="M2125.4,250.3c5.6-4.9,5.8-13.8,0.5-19.9c-5.3-6.1-14.2-7-19.8-2.1c-5.6,4.9-5.8,13.8-0.5,19.9
					C2110.9,254.2,2119.7,255.2,2125.4,250.3z"/>
				<path fill="#486272" d="M2054.9,246.9c5.3,6.1,14.2,7,19.8,2.1c5.6-4.9,5.8-13.8,0.5-19.9c-5.3-6.1-14.2-7-19.8-2.1
					C2049.8,231.9,2049.6,240.8,2054.9,246.9z"/>
				<path fill="#486272" d="M2081.4,158.3c8.2,8.5,21.1,9.4,28.8,2c7.7-7.4,7.4-20.3-0.8-28.9c-8.2-8.5-21.1-9.5-28.8-2.1
					C2072.9,136.9,2073.2,149.8,2081.4,158.3z"/>
				<path fill="#486272" d="M2134.4,121.5c5.4-5.2,5.2-14.1-0.4-19.9c-5.6-5.8-14.5-6.4-19.9-1.2c-5.4,5.2-5.2,14.1,0.4,19.9
					C2120.1,126.1,2129,126.7,2134.4,121.5z"/>
				<path fill="#486272" d="M2077.9,189.2c5.4-5.2,5.2-14.1-0.4-19.9c-5.6-5.8-14.5-6.4-19.9-1.2c-5.4,5.2-5.2,14.1,0.4,19.9
					C2063.6,193.7,2072.5,194.3,2077.9,189.2z"/>
				<path fill="#486272" d="M2027.3,190.1c5.4-5.2,5.2-14.1-0.4-19.9c-5.6-5.8-14.5-6.4-19.9-1.2c-5.4,5.1-5.2,14.1,0.4,19.9
					C2013,194.7,2021.9,195.3,2027.3,190.1z"/>
				<path fill="#486272" d="M2058.8,100c7.4-7.8,6.5-20.6-2.1-28.8c-8.5-8.2-21.5-8.5-28.9-0.8c-7.4,7.8-6.5,20.7,2.1,28.8
					C2038.5,107.4,2051.4,107.7,2058.8,100z"/>
				<path fill="#486272" d="M2081.2,60.1c5.2-5.4,4.6-14.3-1.2-19.9c-5.9-5.6-14.8-5.7-19.9-0.4c-5.1,5.4-4.6,14.3,1.3,19.9
					C2067.2,65.4,2076.1,65.5,2081.2,60.1z"/>
				<path fill="#486272" d="M2007.8,129.8c5.9,5.6,14.8,5.8,19.9,0.4c5.2-5.4,4.6-14.3-1.3-19.9c-5.8-5.6-14.8-5.7-19.9-0.4
					C2001.4,115.3,2002,124.2,2007.8,129.8z"/>
				<path fill="#486272" d="M1977.2,133.4c5.2-5.4,4.6-14.3-1.3-19.9c-5.9-5.6-14.8-5.7-19.9-0.3c-5.2,5.4-4.6,14.3,1.2,19.9
					C1963.2,138.6,1972.1,138.8,1977.2,133.4z"/>
				<path fill="#486272" d="M1975.9,42.4c8.9,7.8,21.8,7.5,28.9-0.5c7.1-8.1,5.6-20.9-3.3-28.7c-8.9-7.8-21.8-7.6-28.9,0.5
					C1965.5,21.8,1967,34.6,1975.9,42.4z"/>
				<path fill="#486272" d="M2005.5,1.7c6.1,5.3,15,5.1,19.9-0.5c0.3-0.4,0.6-0.7,0.9-1.1h-22.4C2004.4,0.6,2004.9,1.1,2005.5,1.7z"
					/>
				<path fill="#486272" d="M1955.2,74c6.1,5.3,15,5.1,19.9-0.5c4.9-5.6,3.9-14.5-2.1-19.8c-6.1-5.3-15-5.1-19.9,0.5
					C1948.1,59.8,1949.1,68.6,1955.2,74z"/>
				<path fill="#486272" d="M1904.8,79.4c6.1,5.3,15,5.1,19.9-0.5c4.9-5.6,4-14.5-2.1-19.8c-6.1-5.3-15-5.1-19.9,0.5
					C1897.8,65.2,1898.8,74.1,1904.8,79.4z"/>
				<path fill="#486272" d="M1900.1,20.5c6.3,5.1,15.2,4.4,19.9-1.4c4.5-5.6,3.4-14-2.3-19.1h-19.9c-0.2,0.3-0.5,0.5-0.7,0.8
					C1892.4,6.6,1893.8,15.4,1900.1,20.5z"/>
				<path fill="#486272" d="M1850,28.1c6.3,5.1,15.2,4.4,19.9-1.4c4.7-5.8,3.3-14.7-3-19.7c-6.3-5-15.2-4.4-19.9,1.4
					C1842.4,14.3,1843.7,23.1,1850,28.1z"/>
			</g>
			<g>
				<path fill="#454D56" d="M1258.1,2679.4c768.6-298.1,1151.5-1166,853.4-1934.6c-125.8-324.3-353-580-631.4-744.8h-15.2
					c282.1,163.7,512.6,420.5,639.5,747.5c296.6,764.7-84.3,1628.1-849,1924.7c-426.2,165.3-883,120.1-1255.3-84.6v8.7
					C373.5,2800.4,831.1,2844.9,1258.1,2679.4z"/>
				<path fill="#454D56" d="M1229.7,2606.2c728.3-282.4,1091.1-1104.7,808.6-1833c-138-355.9-404.9-624.5-726.8-773.1h-18.5
					c326.9,146.4,598.7,416.4,738.1,775.9c280.9,724.4-79.9,1542.2-804.3,1823.1C808.7,2761.2,359.2,2709.5,0,2497.3v8.9
					C360.5,2717.6,810.7,2768.7,1229.7,2606.2z"/>
				<path fill="#454D56" d="M1199.5,2528.3c685.4-265.8,1026.8-1039.6,761-1725C1802,394.6,1462.8,108.2,1069.4,0h-30.1
					c403,101.5,752.6,390,914,806.1c264.3,681.4-75.1,1450.8-756.6,1715.1C786.6,2680.2,344.6,2620.6,0,2399.3v9.1
					C345.9,2628.8,788.6,2687.7,1199.5,2528.3z"/>
				<path fill="#454D56" d="M393.6,0h-30.2c-42.9,11.8-85.6,25.9-127.9,42.4C151.7,74.9,73,115,0,161.6v9.1
					c73.8-47.5,153.4-88.2,238.3-121.2C289.6,29.6,341.5,13.2,393.6,0z"/>
				<path fill="#454D56" d="M775.4,1434.6c82.3-31.9,123.2-124.8,91.3-207.1c-31.9-82.3-124.8-123.3-207-91.3
					c-82.3,31.9-123.3,124.8-91.4,207.1C600.2,1425.5,693.1,1466.5,775.4,1434.6z M673,1170.4c63.3-24.6,134.9,7,159.4,70.4
					c24.6,63.3-7,134.9-70.3,159.5c-63.3,24.6-134.9-7.1-159.4-70.4C578.1,1266.6,609.6,1195,673,1170.4z"/>
				<path fill="#454D56" d="M1021,2067.9c431.5-167.3,646.4-654.6,479.1-1086.1C1332.8,550.3,845.6,335.4,414,502.8
					C234.6,572.4,92.6,697.3,0,850.5v8.8C92,703.9,234.7,577.2,415.7,507c429.2-166.4,913.8,47.4,1080.2,476.5
					c166.4,429.2-47.3,913.7-476.5,1080.2C634.2,2213,204.4,2056.2,0,1712.2v8.8C207,2062.3,636.1,2217.2,1021,2067.9z"/>
				<path fill="#454D56" d="M2245,693c-109.6-282.7-289.6-517.8-512.2-693h-12.4c225.1,175,407.1,411.1,517.5,695.8
					c323.2,833.5-87.7,1773.9-916.3,2104.2h20.4C2162.8,2461.9,2567.5,1524.5,2245,693z"/>
				<path fill="#454D56" d="M988.9,1985c385.8-149.6,577.9-585.2,428.3-971c-149.6-385.8-585.2-577.9-971-428.3
					C223.3,672.1,65,854.1,0,1066.8v15.3c61.9-217.4,221.2-404.4,447.8-492.3c383.6-148.7,816.6,42.3,965.4,425.8
					c148.8,383.6-42.3,816.7-425.9,965.4c-383.6,148.7-816.6-42.3-965.3-425.9c-8.4-21.6-15.7-43.4-21.9-65.3v15.2
					c5.3,17.3,11.3,34.5,17.9,51.7C167.5,1942.4,603.1,2134.6,988.9,1985z"/>
				<path fill="#454D56" d="M1090.2,2246.3c529.9-205.5,793.8-803.8,588.3-1333.6C1473,382.8,874.7,118.9,344.9,324.4
					C212.2,375.8,96.1,451.9,0,545.4v8.1c96.4-94.8,213.1-171.9,346.9-223.7c526.9-204.3,1121.9,58.2,1326.2,585.1
					c204.3,526.9-58.1,1121.8-585.1,1326.2C701.7,2390.8,278.7,2289.6,0,2017.2v8C280.3,2296.2,703.4,2396.3,1090.2,2246.3z"/>
				<path fill="#454D56" d="M1054.6,2154.7c479.3-185.9,718.1-727.1,532.2-1206.4C1401,468.9,859.7,230.2,380.4,416.1
					C226.9,475.6,98.1,571.5,0,690.2v7.2c98.1-120.1,227.5-217.2,382.1-277.1c477-185,1015.6,52.6,1200.5,529.6
					c185,477-52.6,1015.6-529.6,1200.5c-382.9,148.5-805.5,24.7-1053-276.7v7.2C249.2,2180.6,671.7,2303.2,1054.6,2154.7z"/>
				<path fill="#454D56" d="M760.9,1397.3c61.7-23.9,92.4-93.6,68.5-155.3c-23.9-61.7-93.6-92.4-155.3-68.5
					c-61.7,23.9-92.5,93.6-68.5,155.3C629.5,1390.4,699.2,1421.2,760.9,1397.3z M693.7,1223.9c33.9-13.1,72.1,3.8,85.3,37.7
					c13.1,33.9-3.7,72.1-37.6,85.3c-33.9,13.1-72.1-3.7-85.3-37.6C643,1275.3,659.8,1237,693.7,1223.9z"/>
				<path fill="#454D56" d="M0,2757.4c31.2,15.2,62.9,29.4,95,42.6h20.4c-39.1-15.6-77.6-32.6-115.5-51.2V2757.4z"/>
				<path fill="#454D56" d="M121.9,0C79.9,19.4,39.2,40.7,0,63.7v8.8C44.9,46,91.7,21.8,140.3,0H121.9z"/>
				<path fill="#454D56" d="M1161.8,2431c631.7-245,946.3-958.2,701.4-1589.9C1618.2,209.4,905-105.2,273.3,139.7
					C174,178.2,82.6,228.2,0,287.7v7.1c83.1-60.2,175.2-110.9,275.3-149.7C904.1-98.8,1614,214.4,1857.8,843.2
					c243.8,628.8-69.3,1338.6-698.1,1582.5C758.8,2581.1,325,2510.1,0,2275.3v7.1C326.2,2516.3,760.4,2586.6,1161.8,2431z"/>
				<path fill="#454D56" d="M1123,2330.8c576.5-223.6,863.6-874.4,640.1-1450.9c-223.5-576.4-874.4-863.6-1450.9-640
					C195.7,285,91,347.7,0,423.6v7.5c91.4-76.9,196.8-140.3,314.2-185.8C887.7,22.8,1535.2,308.5,1757.7,882
					c222.4,573.6-63.2,1221.1-636.8,1443.5C728.7,2477.6,301.8,2392.1,0,2139.3v7.5C303.1,2398.4,730.3,2483.1,1123,2330.8z"/>
				<path fill="#454D56" d="M1003.1,2021.8c406.1-157.5,608.3-616,450.9-1022.1c-157.5-406.1-616-608.3-1022-450.8
					C232.8,626.1,82.7,775.7,0,956v11c81.3-183.3,232.2-335.8,433.6-413.9c403.8-156.6,859.6,44.5,1016.2,448.3
					c156.6,403.8-44.5,859.6-448.3,1016.2c-391.8,151.9-832.6-32.9-1001.5-413v11C172.8,1991.6,612.2,2173.4,1003.1,2021.8z"/>
			</g>
			<path fill="#DBDBDB" d="M1358.1,1075.7C1242.3,721.9,861.6,529,507.8,644.8C154,760.6-38.9,1141.3,77,1495
				c115.8,353.8,496.5,546.7,850.3,430.9C1281,1810.1,1473.9,1429.5,1358.1,1075.7z M656.3,1305.4c-11.1-33.8,7.3-70.1,41.2-81.2
				c33.8-11.1,70.2,7.3,81.2,41.1c11.1,33.8-7.3,70.2-41.1,81.3C703.7,1357.7,667.4,1339.2,656.3,1305.4z"/>
		</g>
		<g>
			<path fill="#F9F9F9" d="M1486.8,1824.8c-5.7,40.4,121,182.4,172.1,190.7c15.9,2.6,141.3-115.3,159.8-142.3
				c12.3-18,14.2-62.6,32.2-80.8c18-18.2,239.3-221,239.3-221L1967,1426c0,0-224.8,225.3-262.3,236.2c-37.4,10.8-46,9.1-59.1,17.1
				C1608.2,1702.1,1490.1,1801.4,1486.8,1824.8z"/>
			<path fill="#DBDBDB" d="M1486.8,1824.8c-5.7,40.4,121,182.4,172.1,190.7c15.9,2.6,141.3-115.3,159.8-142.3
				c12.3-18,14.2-62.6,32.2-80.8c18-18.2,132.9-154.4,165.4-228c15.9-36.1-9.7-59-39-53.2c-86.6,17.1-235,140.1-272.5,150.9
				c-37.4,10.8-46,9.1-59.1,17.1C1608.2,1702.1,1490.1,1801.4,1486.8,1824.8z"/>
			<path fill="#F9F9F9" d="M1766.1,1698.5c-10.4,9.1-9.5,27,1.9,40.1l0,0c11.4,13.1,29.1,16.3,39.5,7.2l153-133.7
				c10.4-9.1,9.6-27-1.9-40.1l0,0c-11.4-13.1-29.1-16.3-39.4-7.2L1766.1,1698.5z"/>
			<path fill="#333333" d="M1773.5,1696.9c-9.6,8.4-9.4,24.2,0.3,35.4l0,0c9.8,11.2,25.5,13.5,35.1,5.1l141.4-123.5
				c9.6-8.4,9.4-24.2-0.3-35.4l0,0c-9.8-11.2-25.5-13.5-35-5.1L1773.5,1696.9z"/>
			<path fill="#F9F9F9" d="M1557.5,1789c-12.5,11.9-12.1,32.6,0.8,46.2l0,0c13,13.6,33.6,15,46.1,3l72.1-68.7
				c12.5-11.9,12.1-32.6-0.8-46.2l0,0c-13-13.6-33.6-15-46.1-3L1557.5,1789z"/>
			<path fill="#333333" d="M1562.3,1784.5c-11.9,11.3-12.5,29.9-1.5,41.5l0,0c11.1,11.6,29.7,11.9,41.6,0.5l68.4-65.2
				c11.9-11.3,12.5-29.9,1.4-41.5l0,0c-11.1-11.6-29.7-11.9-41.6-0.5L1562.3,1784.5z"/>
			<path fill="#F9F9F9" d="M1663.8,1903.9c-12.5,11.9-12.1,32.6,0.8,46.2l0,0c13,13.6,33.6,15,46.1,3l72.1-68.7
				c12.5-11.9,12.1-32.6-0.8-46.2l0,0c-13-13.6-33.6-15-46.1-3L1663.8,1903.9z"/>
			<path fill="#333333" d="M1668.6,1899.3c-11.9,11.3-12.5,29.9-1.4,41.5l0,0c11.1,11.6,29.7,11.9,41.6,0.5l68.4-65.3
				c11.9-11.3,12.5-29.9,1.4-41.5l0,0c-11.1-11.6-29.7-11.9-41.6-0.5L1668.6,1899.3z"/>
			<path fill="#F9F9F9" d="M1750.8,1787.4c-3.2,13-16.4,21-29.5,17.8c-13-3.2-21-16.4-17.8-29.5c3.2-13,16.4-21,29.5-17.8
				C1746.1,1761.2,1754,1774.4,1750.8,1787.4z"/>
			<path fill="#333333" d="M1746.1,1786.2c-2.6,10.4-13.1,16.8-23.6,14.2c-10.4-2.6-16.8-13.1-14.2-23.6
				c2.6-10.4,13.1-16.8,23.6-14.2C1742.3,1765.2,1748.6,1775.8,1746.1,1786.2z"/>
			<polygon fill="#EDEFEF" points="1847.4,1796.5 2024.4,1980.8 2041.8,1966.8 1872.9,1771.5 			"/>
			<polygon fill="#DBDBDB" points="2074.7,1554.6 1982.5,1444.8 1999.7,1430.3 2091.9,1540.2 			"/>
			<polygon fill="#F9F9F9" points="2004.5,1436 2009.5,1429.6 2004.5,1413.1 2123.9,1306.5 2230.2,1424.3 2107.7,1531.4 
				2091,1524.9 2082.6,1529.1 			"/>
			<path fill="#F9F9F9" d="M2140.6,1325c0,0,259.5-199.2,308.9-398.3C2505.6,700.3,2543.2,0,2543.2,0h112.3
				c0,0-28.4,690.4-102.3,985.5c-49.7,198.5-340.7,419.3-340.7,419.3L2140.6,1325z"/>
			<g>
				<polygon fill="#DBDBDB" points="2169.7,1478.5 2184.4,1483.1 2181.5,1467.8 				"/>
				<polygon fill="#DBDBDB" points="2075.3,1348.6 2063.7,1358.7 2060.2,1343.6 				"/>
				<g>
					<polygon fill="#333333" points="2169.6,1477 2160.5,1466.8 2170.9,1457.6 2180,1467.8 					"/>
					<path fill="#DBDBDB" d="M2175.9,1469.7l0.2-4.2l2,2.2L2175.9,1469.7z M2181,1467l-9.1-10.2c-0.2-0.3-0.5-0.4-0.9-0.4
						c-0.3,0-0.7,0.1-0.9,0.3l-10.4,9.2c-0.3,0.2-0.4,0.6-0.4,0.9c0,0.3,0.1,0.7,0.3,0.9l9.1,10.2c0.2,0.2,0.4,0.3,0.7,0.4
						c0.4,0.1,0.8,0,1.2-0.3l10.4-9.2c0.3-0.2,0.4-0.5,0.4-0.9C2181.4,1467.5,2181.2,1467.2,2181,1467z M2167.9,1464.5l5.7,0.4
						l-0.3,5.9l-5.7-0.4L2167.9,1464.5z M2170.8,1459.5l2.5,2.8l-5.2-0.3L2170.8,1459.5z M2165.2,1464.3l-0.3,5.5l-2.6-2.9
						L2165.2,1464.3z M2169.7,1475.2l-2-2.2l4.2,0.3L2169.7,1475.2z"/>
				</g>
				<g>
					<polygon fill="#333333" points="2158.9,1464.8 2149.8,1454.6 2160.2,1445.4 2169.4,1455.6 					"/>
					<path fill="#DBDBDB" d="M2165.3,1457.5l0.3-4.2l2,2.2L2165.3,1457.5z M2170.3,1454.8l-9.1-10.2c-0.2-0.3-0.6-0.4-0.9-0.4
						c-0.3,0-0.7,0.1-0.9,0.3l-10.4,9.2c-0.3,0.2-0.4,0.5-0.4,0.9c0,0.3,0.1,0.7,0.3,0.9l9.1,10.2c0.2,0.2,0.4,0.3,0.7,0.4
						c0.4,0.1,0.8,0,1.2-0.3l10.4-9.2c0.3-0.2,0.4-0.5,0.4-0.9C2170.7,1455.4,2170.6,1455,2170.3,1454.8z M2157.2,1452.3l5.7,0.4
						l-0.4,5.9l-5.7-0.4L2157.2,1452.3z M2160.1,1447.3l2.5,2.8l-5.2-0.3L2160.1,1447.3z M2154.6,1452.2l-0.3,5.5l-2.6-2.9
						L2154.6,1452.2z M2159,1463l-2-2.2l4.2,0.3L2159,1463z"/>
				</g>
				<g>
					<polygon fill="#333333" points="2148.5,1453.3 2139.4,1443.1 2149.9,1433.9 2159,1444.1 					"/>
					<path fill="#DBDBDB" d="M2154.9,1446l0.2-4.2l2,2.2L2154.9,1446z M2159.9,1443.3l-9.1-10.2c-0.2-0.3-0.6-0.4-0.9-0.4
						c-0.4,0-0.7,0.1-1,0.3l-10.4,9.2c-0.3,0.2-0.4,0.5-0.4,0.9c0,0.3,0.1,0.7,0.3,0.9l9.1,10.2c0.2,0.2,0.4,0.4,0.7,0.4
						c0.4,0.1,0.8,0,1.2-0.3l10.4-9.2c0.3-0.2,0.4-0.5,0.4-0.9C2160.3,1443.9,2160.2,1443.5,2159.9,1443.3z M2146.8,1440.8l5.7,0.4
						l-0.3,5.9l-5.7-0.4L2146.8,1440.8z M2149.7,1435.8l2.5,2.8l-5.2-0.3L2149.7,1435.8z M2144.2,1440.7l-0.3,5.5l-2.6-2.9
						L2144.2,1440.7z M2148.6,1451.5l-2-2.2l4.2,0.3L2148.6,1451.5z"/>
				</g>
				<g>
					<polygon fill="#333333" points="2137.8,1441.2 2128.7,1431 2139.1,1421.8 2148.3,1432 					"/>
					<path fill="#DBDBDB" d="M2144.2,1433.9l0.3-4.2l2,2.2L2144.2,1433.9z M2149.2,1431.2l-9.1-10.2c-0.2-0.3-0.6-0.4-0.9-0.4
						c-0.3,0-0.7,0.1-1,0.3l-10.4,9.2c-0.3,0.2-0.4,0.5-0.4,0.9c0,0.3,0.1,0.7,0.3,0.9l9.1,10.2c0.2,0.2,0.4,0.3,0.7,0.4
						c0.4,0.1,0.8,0,1.2-0.3l10.4-9.2c0.3-0.2,0.4-0.5,0.4-0.9C2149.6,1431.8,2149.5,1431.4,2149.2,1431.2z M2136.1,1428.7l5.7,0.3
						l-0.3,5.9l-5.7-0.4L2136.1,1428.7z M2139,1423.7l2.5,2.8l-5.2-0.3L2139,1423.7z M2133.5,1428.6l-0.3,5.5l-2.6-2.9
						L2133.5,1428.6z M2137.9,1439.4l-2-2.2l4.2,0.3L2137.9,1439.4z"/>
				</g>
				<g>
					<polygon fill="#333333" points="2127.1,1429 2118,1418.8 2128.5,1409.6 2137.6,1419.8 					"/>
					<path fill="#DBDBDB" d="M2133.5,1421.6l0.2-4.2l2,2.2L2133.5,1421.6z M2138.6,1418.9l-9.1-10.2c-0.2-0.3-0.5-0.4-0.9-0.4
						c-0.3,0-0.7,0.1-0.9,0.3l-10.4,9.2c-0.3,0.2-0.4,0.6-0.4,0.9c0,0.3,0.1,0.7,0.3,0.9l9.1,10.2c0.2,0.2,0.4,0.4,0.7,0.4
						c0.4,0.1,0.8,0,1.2-0.3l10.4-9.2c0.3-0.2,0.4-0.5,0.4-0.9C2138.9,1419.5,2138.8,1419.2,2138.6,1418.9z M2125.4,1416.4l5.7,0.4
						l-0.3,5.9l-5.7-0.4L2125.4,1416.4z M2128.4,1411.4l2.5,2.8l-5.2-0.3L2128.4,1411.4z M2122.8,1416.3l-0.3,5.5l-2.6-2.9
						L2122.8,1416.3z M2127.3,1427.1l-2-2.2l4.2,0.3L2127.3,1427.1z"/>
				</g>
				<g>
					<polygon fill="#333333" points="2116.8,1417.4 2107.6,1407.2 2118.1,1398.1 2127.2,1408.3 					"/>
					<path fill="#DBDBDB" d="M2123.1,1410.1l0.2-4.2l2,2.2L2123.1,1410.1z M2128.2,1407.4l-9.1-10.2c-0.2-0.3-0.6-0.4-0.9-0.4
						c-0.3,0-0.7,0.1-0.9,0.3l-10.4,9.2c-0.3,0.2-0.4,0.5-0.4,0.9c0,0.3,0.1,0.7,0.3,0.9l9.1,10.2c0.2,0.2,0.4,0.3,0.7,0.4
						c0.4,0.1,0.8,0,1.1-0.3l10.4-9.2c0.3-0.2,0.4-0.5,0.4-0.9C2128.5,1408,2128.4,1407.7,2128.2,1407.4z M2115,1404.9l5.7,0.4
						l-0.3,5.9l-5.7-0.3L2115,1404.9z M2118,1399.9l2.5,2.8l-5.2-0.3L2118,1399.9z M2112.4,1404.8l-0.3,5.5l-2.6-2.9L2112.4,1404.8z
						 M2116.9,1415.6l-2-2.2l4.2,0.3L2116.9,1415.6z"/>
				</g>
				<g>
					<polygon fill="#333333" points="2106.1,1405.1 2097,1394.9 2107.4,1385.8 2116.5,1396 					"/>
					<path fill="#DBDBDB" d="M2112.4,1397.8l0.2-4.2l2,2.2L2112.4,1397.8z M2117.5,1395.1l-9.1-10.2c-0.2-0.3-0.5-0.4-0.9-0.4
						c-0.3,0-0.7,0.1-0.9,0.3l-10.4,9.2c-0.3,0.2-0.4,0.5-0.4,0.9c0,0.3,0.1,0.7,0.3,0.9l9.1,10.2c0.2,0.2,0.4,0.4,0.7,0.4
						c0.4,0.1,0.8,0,1.2-0.3l10.4-9.2c0.3-0.2,0.4-0.5,0.4-0.9C2117.8,1395.7,2117.7,1395.4,2117.5,1395.1z M2104.3,1392.6l5.7,0.3
						l-0.3,5.9l-5.7-0.4L2104.3,1392.6z M2107.3,1387.6l2.5,2.8l-5.2-0.3L2107.3,1387.6z M2101.7,1392.5l-0.3,5.5l-2.6-2.9
						L2101.7,1392.5z M2106.2,1403.3l-2-2.2l4.2,0.3L2106.2,1403.3z"/>
				</g>
				<g>
					<polygon fill="#333333" points="2095.7,1393.6 2086.6,1383.4 2097,1374.2 2106.1,1384.4 					"/>
					<path fill="#DBDBDB" d="M2102,1386.3l0.2-4.2l2,2.2L2102,1386.3z M2107.1,1383.6l-9.1-10.2c-0.2-0.3-0.5-0.4-0.9-0.4
						c-0.3,0-0.7,0.1-0.9,0.3l-10.4,9.2c-0.3,0.2-0.4,0.5-0.4,0.9c0,0.4,0.1,0.7,0.3,0.9l9.1,10.2c0.2,0.2,0.4,0.3,0.7,0.4
						c0.4,0.1,0.8,0,1.1-0.3l10.4-9.2c0.3-0.2,0.4-0.5,0.4-0.9C2107.5,1384.2,2107.3,1383.8,2107.1,1383.6z M2094,1381.1l5.7,0.3
						l-0.3,5.9l-5.7-0.4L2094,1381.1z M2096.9,1376.1l2.5,2.8l-5.2-0.3L2096.9,1376.1z M2091.3,1381l-0.3,5.5l-2.6-2.9L2091.3,1381z
						 M2095.8,1391.8l-2-2.2l4.2,0.3L2095.8,1391.8z"/>
				</g>
				<g>
					<polygon fill="#333333" points="2085,1381.5 2075.9,1371.3 2086.3,1362.1 2095.4,1372.3 					"/>
					<path fill="#DBDBDB" d="M2091.3,1374.2l0.2-4.2l2,2.2L2091.3,1374.2z M2096.4,1371.5l-9.1-10.2c-0.2-0.3-0.6-0.4-0.9-0.4
						c-0.4,0-0.7,0.1-0.9,0.3l-10.4,9.2c-0.3,0.2-0.4,0.6-0.4,0.9c0,0.3,0.1,0.7,0.3,0.9l9.1,10.2c0.2,0.2,0.4,0.3,0.7,0.4
						c0.4,0.1,0.8,0,1.2-0.3l10.4-9.2c0.3-0.2,0.4-0.5,0.4-0.9C2096.8,1372.1,2096.6,1371.7,2096.4,1371.5z M2083.2,1369l5.7,0.4
						l-0.3,5.9l-5.7-0.4L2083.2,1369z M2086.2,1364l2.5,2.8l-5.2-0.3L2086.2,1364z M2080.6,1368.9l-0.3,5.5l-2.6-2.9L2080.6,1368.9z
						 M2085.1,1379.7l-2-2.2l4.2,0.3L2085.1,1379.7z"/>
				</g>
				<g>
					<polygon fill="#333333" points="2074.3,1369.3 2065.2,1359.1 2075.6,1349.9 2084.8,1360.1 					"/>
					<path fill="#DBDBDB" d="M2080.7,1362l0.2-4.2l2,2.2L2080.7,1362z M2085.7,1359.2l-9.1-10.2c-0.2-0.3-0.6-0.4-0.9-0.4
						c-0.4,0-0.7,0.1-0.9,0.3l-10.4,9.2c-0.3,0.2-0.4,0.5-0.4,0.9c0,0.3,0.1,0.7,0.3,0.9l9.1,10.2c0.2,0.2,0.4,0.3,0.7,0.4
						c0.4,0.1,0.8,0,1.2-0.3l10.4-9.2c0.3-0.2,0.4-0.5,0.4-0.9C2086.1,1359.8,2086,1359.5,2085.7,1359.2z M2072.6,1356.8l5.7,0.4
						l-0.3,5.9l-5.7-0.4L2072.6,1356.8z M2075.5,1351.7l2.5,2.8l-5.2-0.3L2075.5,1351.7z M2070,1356.6l-0.3,5.5l-2.6-2.9
						L2070,1356.6z M2074.4,1367.4l-2-2.2l4.2,0.3L2074.4,1367.4z"/>
				</g>
			</g>
			<g>
				<polygon fill="#DBDBDB" points="2181.9,1467.5 2196.5,1472.1 2193.6,1456.8 				"/>
				<polygon fill="#DBDBDB" points="2087.4,1337.6 2075.9,1347.7 2072.4,1332.5 				"/>
				<g>
					<polygon fill="#333333" points="2181.8,1466 2172.6,1455.8 2183.1,1446.6 2192.2,1456.8 					"/>
					<path fill="#DBDBDB" d="M2188.1,1458.6l0.3-4.2l2,2.2L2188.1,1458.6z M2193.2,1455.9l-9.1-10.2c-0.2-0.3-0.5-0.4-0.9-0.4
						c-0.3,0-0.7,0.1-0.9,0.3l-10.4,9.2c-0.3,0.2-0.4,0.5-0.4,0.9c0,0.3,0.1,0.7,0.3,0.9l9.1,10.2c0.2,0.2,0.4,0.3,0.7,0.4
						c0.4,0.1,0.8,0,1.2-0.3l10.4-9.2c0.3-0.2,0.4-0.5,0.4-0.9C2193.5,1456.5,2193.4,1456.2,2193.2,1455.9z M2180,1453.4l5.7,0.4
						l-0.4,5.9l-5.7-0.4L2180,1453.4z M2183,1448.4l2.5,2.8l-5.2-0.3L2183,1448.4z M2177.4,1453.3l-0.3,5.5l-2.6-2.9L2177.4,1453.3z
						 M2181.9,1464.1l-2-2.2l4.2,0.3L2181.9,1464.1z"/>
				</g>
				<g>
					<polygon fill="#333333" points="2171.1,1453.8 2162,1443.6 2172.4,1434.4 2181.5,1444.6 					"/>
					<path fill="#DBDBDB" d="M2177.4,1446.5l0.2-4.2l2,2.2L2177.4,1446.5z M2182.5,1443.8l-9.1-10.2c-0.2-0.3-0.6-0.4-0.9-0.4
						c-0.3,0-0.7,0.1-0.9,0.3l-10.4,9.2c-0.3,0.2-0.4,0.6-0.4,0.9c0,0.3,0.1,0.7,0.3,0.9l9.1,10.2c0.2,0.2,0.4,0.3,0.7,0.4
						c0.4,0.1,0.8,0,1.2-0.3l10.4-9.2c0.3-0.2,0.4-0.5,0.4-0.9C2182.8,1444.4,2182.7,1444,2182.5,1443.8z M2169.3,1441.3l5.7,0.4
						l-0.4,5.9l-5.7-0.4L2169.3,1441.3z M2172.3,1436.3l2.5,2.8l-5.2-0.3L2172.3,1436.3z M2166.7,1441.2l-0.3,5.5l-2.6-2.9
						L2166.7,1441.2z M2171.2,1452l-2-2.2l4.2,0.3L2171.2,1452z"/>
				</g>
				<g>
					<polygon fill="#333333" points="2160.7,1442.3 2151.6,1432.1 2162,1422.9 2171.1,1433.1 					"/>
					<path fill="#DBDBDB" d="M2167,1435l0.2-4.2l2,2.2L2167,1435z M2172.1,1432.2l-9.1-10.2c-0.2-0.3-0.6-0.4-0.9-0.4
						c-0.4,0-0.7,0.1-1,0.3l-10.4,9.2c-0.3,0.2-0.4,0.5-0.4,0.9c0,0.3,0.1,0.7,0.3,0.9l9.1,10.2c0.2,0.2,0.4,0.3,0.7,0.4
						c0.4,0.1,0.8,0,1.2-0.3l10.4-9.2c0.3-0.2,0.4-0.5,0.4-0.9C2172.5,1432.8,2172.3,1432.5,2172.1,1432.2z M2159,1429.8l5.7,0.4
						l-0.3,5.9l-5.7-0.3L2159,1429.8z M2161.9,1424.7l2.5,2.8l-5.2-0.3L2161.9,1424.7z M2156.3,1429.6l-0.3,5.5l-2.6-2.9
						L2156.3,1429.6z M2160.8,1440.4l-2-2.2l4.2,0.3L2160.8,1440.4z"/>
				</g>
				<g>
					<polygon fill="#333333" points="2150,1430.2 2140.9,1420 2151.3,1410.8 2160.4,1421 					"/>
					<path fill="#DBDBDB" d="M2156.3,1422.9l0.3-4.2l2,2.2L2156.3,1422.9z M2161.4,1420.1l-9.1-10.2c-0.2-0.3-0.6-0.4-0.9-0.4
						c-0.3,0-0.7,0.1-0.9,0.3l-10.4,9.2c-0.3,0.2-0.4,0.5-0.4,0.9c0,0.3,0.1,0.7,0.3,0.9l9.1,10.2c0.2,0.2,0.4,0.4,0.7,0.4
						c0.4,0.1,0.8,0,1.2-0.3l10.4-9.2c0.3-0.2,0.4-0.5,0.4-0.9C2161.8,1420.7,2161.6,1420.4,2161.4,1420.1z M2148.3,1417.7l5.7,0.4
						l-0.3,5.9l-5.7-0.4L2148.3,1417.7z M2151.2,1412.6l2.5,2.8l-5.2-0.3L2151.2,1412.6z M2145.6,1417.5l-0.3,5.5l-2.6-2.9
						L2145.6,1417.5z M2150.1,1428.3l-2-2.2l4.2,0.3L2150.1,1428.3z"/>
				</g>
				<g>
					<polygon fill="#333333" points="2139.3,1417.9 2130.2,1407.8 2140.6,1398.6 2149.8,1408.8 					"/>
					<path fill="#DBDBDB" d="M2145.7,1410.6l0.2-4.2l2,2.2L2145.7,1410.6z M2150.7,1407.9l-9.1-10.2c-0.2-0.3-0.6-0.4-0.9-0.4
						c-0.3,0-0.7,0.1-0.9,0.3l-10.4,9.2c-0.3,0.2-0.4,0.5-0.4,0.9c0,0.3,0.1,0.7,0.3,0.9l9.1,10.2c0.2,0.2,0.4,0.4,0.7,0.4
						c0.4,0.1,0.8,0,1.2-0.3l10.4-9.2c0.3-0.2,0.4-0.5,0.4-0.9C2151.1,1408.5,2151,1408.2,2150.7,1407.9z M2137.6,1405.4l5.7,0.4
						l-0.3,5.9l-5.7-0.4L2137.6,1405.4z M2140.5,1400.4l2.5,2.8l-5.2-0.3L2140.5,1400.4z M2135,1405.3l-0.3,5.5l-2.6-2.9
						L2135,1405.3z M2139.4,1416.1l-2-2.2l4.2,0.3L2139.4,1416.1z"/>
				</g>
				<g>
					<polygon fill="#333333" points="2128.9,1406.4 2119.8,1396.2 2130.3,1387 2139.4,1397.2 					"/>
					<path fill="#DBDBDB" d="M2135.3,1399.1l0.2-4.2l2,2.2L2135.3,1399.1z M2140.3,1396.4l-9.1-10.2c-0.2-0.3-0.6-0.4-0.9-0.4
						c-0.3,0-0.7,0.1-0.9,0.3l-10.4,9.2c-0.3,0.2-0.4,0.5-0.4,0.9c0,0.3,0.1,0.7,0.3,0.9l9.1,10.2c0.2,0.2,0.4,0.3,0.7,0.4
						c0.4,0.1,0.8,0,1.2-0.3l10.4-9.2c0.3-0.2,0.4-0.5,0.4-0.9C2140.7,1397,2140.6,1396.6,2140.3,1396.4z M2127.2,1393.9l5.7,0.4
						l-0.3,5.9l-5.7-0.4L2127.2,1393.9z M2130.2,1388.9l2.5,2.8l-5.2-0.3L2130.2,1388.9z M2124.6,1393.8l-0.3,5.5l-2.6-2.9
						L2124.6,1393.8z M2129,1404.6l-2-2.2l4.2,0.3L2129,1404.6z"/>
				</g>
				<g>
					<polygon fill="#333333" points="2118.2,1394.1 2109.1,1383.9 2119.6,1374.7 2128.7,1384.9 					"/>
					<path fill="#DBDBDB" d="M2124.6,1386.8l0.3-4.2l2,2.2L2124.6,1386.8z M2129.7,1384.1l-9.1-10.2c-0.2-0.3-0.6-0.4-0.9-0.4
						c-0.3,0-0.7,0.1-0.9,0.3l-10.4,9.2c-0.3,0.2-0.4,0.5-0.4,0.9c0,0.3,0.1,0.7,0.3,0.9l9.1,10.2c0.2,0.2,0.4,0.4,0.7,0.4
						c0.4,0.1,0.8,0,1.2-0.3l10.4-9.2c0.3-0.2,0.4-0.5,0.4-0.9C2130,1384.7,2129.9,1384.3,2129.7,1384.1z M2116.5,1381.6l5.7,0.3
						l-0.4,5.9l-5.7-0.4L2116.5,1381.6z M2119.5,1376.6l2.5,2.8l-5.2-0.3L2119.5,1376.6z M2113.9,1381.5l-0.3,5.5l-2.6-2.9
						L2113.9,1381.5z M2118.3,1392.3l-2-2.2l4.2,0.3L2118.3,1392.3z"/>
				</g>
				<g>
					<polygon fill="#333333" points="2107.8,1382.6 2098.7,1372.4 2109.2,1363.2 2118.3,1373.4 					"/>
					<path fill="#DBDBDB" d="M2114.2,1375.3l0.2-4.2l2,2.2L2114.2,1375.3z M2119.3,1372.5l-9.1-10.2c-0.2-0.3-0.6-0.4-0.9-0.4
						c-0.3,0-0.7,0.1-0.9,0.3l-10.4,9.2c-0.3,0.2-0.4,0.6-0.4,0.9c0,0.4,0.1,0.7,0.3,0.9l9.1,10.2c0.2,0.2,0.4,0.3,0.7,0.4
						c0.4,0.1,0.8,0,1.2-0.3l10.4-9.2c0.3-0.2,0.4-0.5,0.4-0.9C2119.6,1373.1,2119.5,1372.8,2119.3,1372.5z M2106.1,1370.1l5.7,0.3
						l-0.3,5.9l-5.7-0.4L2106.1,1370.1z M2109.1,1365.1l2.5,2.8l-5.2-0.3L2109.1,1365.1z M2103.5,1370l-0.3,5.5l-2.6-2.9
						L2103.5,1370z M2108,1380.8l-2-2.2l4.2,0.3L2108,1380.8z"/>
				</g>
				<g>
					<polygon fill="#333333" points="2097.1,1370.5 2088,1360.3 2098.5,1351.1 2107.6,1361.3 					"/>
					<path fill="#DBDBDB" d="M2103.5,1363.2l0.2-4.2l2,2.2L2103.5,1363.2z M2108.6,1360.5l-9.1-10.2c-0.2-0.3-0.6-0.4-0.9-0.4
						c-0.3,0-0.7,0.1-0.9,0.3l-10.4,9.2c-0.3,0.2-0.4,0.6-0.4,0.9c0,0.3,0.1,0.7,0.3,0.9l9.1,10.2c0.2,0.2,0.4,0.3,0.7,0.4
						c0.4,0.1,0.8,0,1.2-0.3l10.4-9.2c0.3-0.2,0.4-0.5,0.4-0.9C2108.9,1361,2108.8,1360.7,2108.6,1360.5z M2095.4,1358l5.7,0.3
						l-0.3,5.9l-5.7-0.4L2095.4,1358z M2098.4,1352.9l2.5,2.8l-5.2-0.3L2098.4,1352.9z M2092.8,1357.9l-0.3,5.5l-2.6-2.9
						L2092.8,1357.9z M2097.3,1368.7l-2-2.2l4.2,0.3L2097.3,1368.7z"/>
				</g>
				<g>
					<polygon fill="#333333" points="2086.5,1358.3 2077.4,1348.1 2087.8,1338.9 2096.9,1349.1 					"/>
					<path fill="#DBDBDB" d="M2092.8,1350.9l0.2-4.2l2,2.2L2092.8,1350.9z M2097.9,1348.2l-9.1-10.2c-0.2-0.3-0.6-0.4-0.9-0.4
						c-0.3,0-0.7,0.1-0.9,0.3l-10.4,9.2c-0.3,0.2-0.4,0.5-0.4,0.9c0,0.3,0.1,0.7,0.3,0.9l9.1,10.2c0.2,0.2,0.4,0.4,0.7,0.4
						c0.4,0.1,0.8,0,1.2-0.3l10.4-9.2c0.3-0.2,0.4-0.5,0.4-0.9C2098.2,1348.8,2098.1,1348.5,2097.9,1348.2z M2084.7,1345.7l5.7,0.4
						l-0.3,5.9l-5.7-0.4L2084.7,1345.7z M2087.7,1340.7l2.5,2.8l-5.2-0.3L2087.7,1340.7z M2082.1,1345.6l-0.3,5.5l-2.6-2.9
						L2082.1,1345.6z M2086.6,1356.4l-2-2.2l4.2,0.3L2086.6,1356.4z"/>
				</g>
			</g>
			<g>
				<polygon fill="#DBDBDB" points="2194.1,1456.4 2208.7,1461.1 2205.8,1445.8 				"/>
				<polygon fill="#DBDBDB" points="2099.6,1326.6 2088.1,1336.7 2084.6,1321.5 				"/>
				<g>
					<polygon fill="#333333" points="2193.9,1454.9 2184.8,1444.8 2195.3,1435.6 2204.4,1445.8 					"/>
					<path fill="#DBDBDB" d="M2200.3,1447.6l0.3-4.2l2,2.2L2200.3,1447.6z M2205.4,1444.9l-9.1-10.2c-0.2-0.3-0.5-0.4-0.9-0.4
						c-0.3,0-0.7,0.1-0.9,0.3l-10.4,9.2c-0.3,0.2-0.4,0.6-0.4,0.9c0,0.3,0.1,0.7,0.3,0.9l9.1,10.2c0.2,0.2,0.4,0.3,0.7,0.4
						c0.4,0.1,0.8,0,1.2-0.3l10.4-9.2c0.3-0.2,0.4-0.5,0.4-0.9C2205.7,1445.5,2205.6,1445.2,2205.4,1444.9z M2192.2,1442.4l5.7,0.4
						l-0.4,5.9l-5.7-0.4L2192.2,1442.4z M2195.2,1437.4l2.5,2.8l-5.2-0.3L2195.2,1437.4z M2189.6,1442.3l-0.3,5.5l-2.6-2.9
						L2189.6,1442.3z M2194,1453.1l-2-2.2l4.2,0.3L2194,1453.1z"/>
				</g>
				<g>
					<polygon fill="#333333" points="2183.2,1442.8 2174.1,1432.6 2184.6,1423.4 2193.7,1433.6 					"/>
					<path fill="#DBDBDB" d="M2189.6,1435.5l0.2-4.2l2,2.2L2189.6,1435.5z M2194.7,1432.7l-9.1-10.2c-0.2-0.3-0.6-0.4-0.9-0.4
						c-0.3,0-0.7,0.1-0.9,0.3l-10.4,9.2c-0.3,0.2-0.4,0.6-0.4,0.9c0,0.3,0.1,0.7,0.3,0.9l9.1,10.2c0.2,0.2,0.4,0.3,0.7,0.4
						c0.4,0.1,0.8,0,1.2-0.3l10.4-9.2c0.3-0.2,0.4-0.5,0.4-0.9C2195,1433.3,2194.9,1433,2194.7,1432.7z M2181.5,1430.3l5.7,0.4
						l-0.3,5.9l-5.7-0.3L2181.5,1430.3z M2184.5,1425.2l2.5,2.8l-5.2-0.3L2184.5,1425.2z M2178.9,1430.1l-0.3,5.5l-2.6-2.9
						L2178.9,1430.1z M2183.4,1440.9l-2-2.2l4.2,0.3L2183.4,1440.9z"/>
				</g>
				<g>
					<polygon fill="#333333" points="2172.9,1431.3 2163.8,1421.1 2174.2,1411.9 2183.3,1422.1 					"/>
					<path fill="#DBDBDB" d="M2179.2,1423.9l0.2-4.2l2,2.2L2179.2,1423.9z M2184.3,1421.2l-9.1-10.2c-0.2-0.3-0.6-0.4-0.9-0.4
						c-0.4,0-0.7,0.1-1,0.3l-10.4,9.2c-0.3,0.2-0.4,0.5-0.4,0.9c0,0.3,0.1,0.7,0.3,0.9l9.1,10.2c0.2,0.2,0.4,0.4,0.7,0.4
						c0.4,0.1,0.8,0,1.2-0.3l10.4-9.2c0.3-0.2,0.4-0.5,0.4-0.9C2184.6,1421.8,2184.5,1421.5,2184.3,1421.2z M2171.1,1418.7l5.7,0.4
						l-0.3,5.9l-5.7-0.3L2171.1,1418.7z M2174.1,1413.7l2.5,2.8l-5.2-0.3L2174.1,1413.7z M2168.5,1418.6l-0.3,5.5l-2.6-2.9
						L2168.5,1418.6z M2173,1429.4l-2-2.2l4.2,0.3L2173,1429.4z"/>
				</g>
				<g>
					<polygon fill="#333333" points="2162.2,1419.2 2153,1409 2163.5,1399.8 2172.6,1410 					"/>
					<path fill="#DBDBDB" d="M2168.5,1411.8l0.2-4.2l2,2.2L2168.5,1411.8z M2173.6,1409.1l-9.1-10.2c-0.2-0.3-0.5-0.4-0.9-0.4
						c-0.3,0-0.7,0.1-1,0.3l-10.4,9.2c-0.3,0.2-0.4,0.5-0.4,0.9c0,0.3,0.1,0.7,0.3,0.9l9.1,10.2c0.2,0.2,0.4,0.4,0.7,0.4
						c0.4,0.1,0.8,0,1.2-0.3l10.4-9.2c0.3-0.2,0.4-0.5,0.4-0.9C2173.9,1409.7,2173.8,1409.4,2173.6,1409.1z M2160.4,1406.6l5.7,0.4
						l-0.3,5.9l-5.7-0.4L2160.4,1406.6z M2163.4,1401.6l2.5,2.8l-5.2-0.3L2163.4,1401.6z M2157.8,1406.5l-0.3,5.5l-2.6-2.9
						L2157.8,1406.5z M2162.3,1417.3l-2-2.2l4.2,0.3L2162.3,1417.3z"/>
				</g>
				<g>
					<polygon fill="#333333" points="2151.5,1406.9 2142.4,1396.7 2152.8,1387.5 2161.9,1397.7 					"/>
					<path fill="#DBDBDB" d="M2157.8,1399.6l0.2-4.2l2,2.2L2157.8,1399.6z M2162.9,1396.9l-9.1-10.2c-0.2-0.3-0.5-0.4-0.9-0.4
						c-0.3,0-0.7,0.1-0.9,0.3l-10.4,9.2c-0.3,0.2-0.4,0.6-0.4,0.9c0,0.3,0.1,0.7,0.3,0.9l9.1,10.2c0.2,0.2,0.4,0.4,0.7,0.4
						c0.4,0.1,0.8,0,1.2-0.3l10.4-9.2c0.3-0.2,0.4-0.6,0.4-0.9C2163.3,1397.5,2163.1,1397.1,2162.9,1396.9z M2149.8,1394.4l5.7,0.4
						l-0.3,5.9l-5.7-0.4L2149.8,1394.4z M2152.7,1389.4l2.5,2.8l-5.2-0.3L2152.7,1389.4z M2147.1,1394.3l-0.3,5.5l-2.6-2.9
						L2147.1,1394.3z M2151.6,1405.1l-2-2.2l4.2,0.3L2151.6,1405.1z"/>
				</g>
				<g>
					<polygon fill="#333333" points="2141.1,1395.4 2132,1385.2 2142.4,1376 2151.5,1386.2 					"/>
					<path fill="#DBDBDB" d="M2147.4,1388.1l0.2-4.2l2,2.2L2147.4,1388.1z M2152.5,1385.4l-9.1-10.2c-0.2-0.3-0.6-0.4-0.9-0.4
						c-0.3,0-0.7,0.1-0.9,0.3l-10.4,9.2c-0.3,0.2-0.4,0.5-0.4,0.9c0,0.3,0.1,0.7,0.3,0.9l9.1,10.2c0.2,0.2,0.4,0.3,0.7,0.4
						c0.4,0.1,0.8,0,1.1-0.3l10.4-9.2c0.3-0.2,0.4-0.5,0.4-0.9C2152.9,1385.9,2152.8,1385.6,2152.5,1385.4z M2139.4,1382.9l5.7,0.4
						l-0.3,5.9l-5.7-0.3L2139.4,1382.9z M2142.3,1377.9l2.5,2.8l-5.2-0.3L2142.3,1377.9z M2136.8,1382.7l-0.3,5.5l-2.6-2.9
						L2136.8,1382.7z M2141.2,1393.6l-2-2.2l4.2,0.3L2141.2,1393.6z"/>
				</g>
				<g>
					<polygon fill="#333333" points="2130.4,1383.1 2121.3,1372.9 2131.7,1363.7 2140.9,1373.9 					"/>
					<path fill="#DBDBDB" d="M2136.8,1375.8l0.3-4.2l2,2.2L2136.8,1375.8z M2141.8,1373.1l-9.1-10.2c-0.2-0.3-0.6-0.4-0.9-0.4
						c-0.3,0-0.7,0.1-0.9,0.3l-10.4,9.2c-0.3,0.2-0.4,0.5-0.4,0.9c0,0.3,0.1,0.7,0.3,0.9l9.1,10.2c0.2,0.2,0.4,0.4,0.7,0.4
						c0.4,0.1,0.8,0,1.2-0.3l10.4-9.2c0.3-0.2,0.4-0.5,0.4-0.9C2142.2,1373.6,2142.1,1373.3,2141.8,1373.1z M2128.7,1370.6l5.7,0.3
						l-0.3,5.9l-5.7-0.4L2128.7,1370.6z M2131.6,1365.5l2.5,2.8l-5.2-0.3L2131.6,1365.5z M2126.1,1370.4l-0.3,5.5l-2.6-2.9
						L2126.1,1370.4z M2130.5,1381.3l-2-2.2l4.2,0.3L2130.5,1381.3z"/>
				</g>
				<g>
					<polygon fill="#333333" points="2120,1371.6 2110.9,1361.4 2121.4,1352.2 2130.5,1362.4 					"/>
					<path fill="#DBDBDB" d="M2126.4,1364.2l0.2-4.2l2,2.2L2126.4,1364.2z M2131.4,1361.5l-9.1-10.2c-0.2-0.3-0.6-0.4-0.9-0.4
						c-0.3,0-0.7,0.1-0.9,0.3l-10.4,9.2c-0.3,0.2-0.4,0.6-0.4,0.9c0,0.4,0.1,0.7,0.3,0.9l9.1,10.2c0.2,0.2,0.4,0.4,0.7,0.4
						c0.4,0.1,0.8,0,1.2-0.3l10.4-9.2c0.3-0.2,0.4-0.5,0.4-0.9S2131.7,1361.8,2131.4,1361.5z M2118.3,1359.1l5.7,0.3l-0.3,5.9
						l-5.7-0.4L2118.3,1359.1z M2121.2,1354l2.5,2.8l-5.2-0.3L2121.2,1354z M2115.7,1358.9l-0.3,5.5l-2.6-2.9L2115.7,1358.9z
						 M2120.1,1369.7l-2-2.2l4.2,0.3L2120.1,1369.7z"/>
				</g>
				<g>
					<polygon fill="#333333" points="2109.3,1359.5 2100.2,1349.3 2110.6,1340.1 2119.8,1350.3 					"/>
					<path fill="#DBDBDB" d="M2115.7,1352.1l0.2-4.2l2,2.2L2115.7,1352.1z M2120.7,1349.4l-9.1-10.2c-0.2-0.3-0.5-0.4-0.9-0.4
						c-0.4,0-0.7,0.1-1,0.3l-10.4,9.2c-0.3,0.2-0.4,0.6-0.4,0.9c0,0.3,0.1,0.7,0.3,0.9l9.1,10.2c0.2,0.2,0.4,0.3,0.7,0.4
						c0.4,0.1,0.8,0,1.2-0.3l10.4-9.2c0.3-0.2,0.4-0.5,0.4-0.9C2121.1,1350,2121,1349.7,2120.7,1349.4z M2107.6,1347l5.7,0.3
						l-0.3,5.9l-5.7-0.3L2107.6,1347z M2110.5,1341.9l2.5,2.8l-5.2-0.3L2110.5,1341.9z M2105,1346.8l-0.3,5.5l-2.6-2.9L2105,1346.8z
						 M2109.4,1357.6l-2-2.2l4.2,0.3L2109.4,1357.6z"/>
				</g>
				<g>
					<polygon fill="#333333" points="2098.6,1347.2 2089.5,1337 2100,1327.9 2109.1,1338 					"/>
					<path fill="#DBDBDB" d="M2105,1339.9l0.2-4.2l2,2.2L2105,1339.9z M2110.1,1337.2l-9.1-10.2c-0.2-0.3-0.6-0.4-0.9-0.4
						c-0.3,0-0.7,0.1-0.9,0.3l-10.4,9.2c-0.3,0.2-0.4,0.5-0.4,0.9c0,0.3,0.1,0.7,0.3,0.9l9.1,10.2c0.2,0.2,0.4,0.3,0.7,0.4
						c0.4,0.1,0.8,0,1.2-0.3l10.4-9.2c0.3-0.2,0.4-0.5,0.4-0.9C2110.4,1337.8,2110.3,1337.4,2110.1,1337.2z M2096.9,1334.7l5.7,0.4
						l-0.4,5.9l-5.7-0.4L2096.9,1334.7z M2099.9,1329.7l2.5,2.8l-5.2-0.3L2099.9,1329.7z M2094.3,1334.6l-0.3,5.5l-2.6-2.9
						L2094.3,1334.6z M2098.8,1345.4l-2-2.2l4.2,0.3L2098.8,1345.4z"/>
				</g>
			</g>
		</g>
	</g>
	<g>
		<g>
			<path fill="#486272" d="M504.6,1032.5h-68.1V776.7h34.9l-7.6,226.2l40.7,6.5V1032.5z"/>
			<path fill="#486272" d="M610.6,1032.5h-77.1V776.7h77.1V799l-45-2.2v81.8l45,8.3v17.3l-51.2-2.2v103.4l51.2-2.9V1032.5z"/>
			<path fill="#486272" d="M720.8,781.7l1.8,22.7h-31.7v228h-30.6l7.2-221.6l-25.9-8.6l4.7-25.6L720.8,781.7z"/>
		</g>
		<g>
			<path fill="#282F39" d="M832.4,884.9h-20.5V1065H788V882.9l-19.6-3.4l2.8-10.8h61.2V884.9z"/>
			<path fill="#282F39" d="M899.2,982.5l-24.5-4.8v93h-21.1v-202h20.5l-3.1,89.6l28.2-1.4v-88.2H920v202h-12.5L899.2,982.5z"/>
			<path fill="#282F39" d="M1010.7,1070.6h-60.9v-202h60.9v17.6l-35.6-1.7v64.6l35.6,6.5v13.7l-40.4-1.7v81.6l40.4-2.3V1070.6z"/>
		</g>
		<g>
			<path fill="#486272" d="M817.5,1385.4v-263h32.4l18.7,136.2h2.2l16.9-143.4h34.9v263h-23.8l7.9-238.1h-1.4L874,1313h-10.8
				l-25.6-154.6h-1.4v227H817.5z"/>
			<path fill="#486272" d="M981,1126l-7.6,229.8l30.3-2.2v-223l25.2,1.4v253.3h-82.9l8.3-259.4H981z"/>
			<path fill="#486272" d="M1115.8,1173.2l-7.2-28.1l-21.6,2.5l-5.4,80l52.2,9.4l-5,119.6c0,4.8-3.1,9.6-9.4,14.4
				c-6.2,4.8-12,7.2-17.3,7.2h-42.2l-3.2-61.6h21.3l-0.4,31.3l25.2,5.8l5.8-95.8l-48.6-10.8v-116l14.4-8.6h56.6l-1.8,50.8H1115.8z"
				/>
			<path fill="#486272" d="M1195.4,1371h-30.3v-248.6h22.7L1195.4,1371z"/>
			<path fill="#486272" d="M1316.8,1371H1240l-14.8-15.1l7.2-212.9c0.2-5.3,2.5-10,6.7-14.2c4.2-4.2,10-6.3,17.5-6.3l4.7,0.4
				l55.5,7.2l-5.8,58h-16.6v-33.5c0-2.2-1.4-3.2-4.3-3.2h-22.3c-4.6,0-7.9,1.9-9.9,5.6c-2,3.7-3.1,7.9-3.1,12.4
				c0,2.6,0.4,4.2,1.1,4.7v168.6c-0.7,0.2-1.1,0.6-1.1,1.1c0,0.7,1.1,1.1,3.2,1.1h35.7c2.9,0,4.3-0.7,4.3-2.2v-27l6.8-4.3l11.9-0.4
				V1371z"/>
		</g>
		<g>
			<path fill="#282F39" d="M523.3,1464.3c8.4,4.7,12.6,10.3,12.6,16.8V1618c0,3.6-1.2,8-3.6,13.4c-2.4,5.3-7.4,10.4-14.8,15.1
				c-7.4,4.7-18,7-31.6,7h-25.7V1802H432v-324.8l-10.7-5.8v-14.1h70.9C504.5,1457.2,514.8,1459.6,523.3,1464.3z M468.6,1623.5
				c1.1,0.8,2.5,1.2,4.1,1.2l20.9-4.9c1.9,0,2.9-1,2.9-2.9l4.9-122.4c-0.3-4.2-2.1-7.8-5.3-10.9c-3.2-3.1-8.3-4.6-15.1-4.6h-8.3
				c-3.9,0-5.8,1.1-5.8,3.4v138.4C466.9,1621.8,467.5,1622.7,468.6,1623.5z"/>
			<path fill="#282F39" d="M677.7,1802h-98.1v-344.8h35.9V1751l7.3,11.2l54.9,6.3V1802z"/>
			<path fill="#282F39" d="M828.2,1802h-21.4l-17.5-129.2l-38.8,18.5L739.8,1802h-30.1l21.8-344.8h76.7L828.2,1802z M780.1,1477.6
				l-20.9,4.9c-1.9,1-2.9,2.6-2.9,4.9v170.9c0,1.6,1,2.4,2.9,2.4l18-2.9c1.9,0,2.9-1,2.9-2.9l2.9-174.3
				C783,1478.6,782.1,1477.6,780.1,1477.6z"/>
			<path fill="#282F39" d="M934,1802h-37.4v-181.6l-45.2-158.3h44.2l16.5,139.4l3.9-1l14.6-143.2h34l-21.4,135.5l-17.5,30.1
				L934,1802z"/>
			<path fill="#282F39" d="M996.2,1457.2h50.5l-18.5,255.4l-20.9-2.9L996.2,1457.2z M996.2,1757.3l46.6-1.9l-1.9,46.6h-44.7V1757.3z
				"/>
		</g>
	</g>
</g>
</svg>
